<mxfile host="app.diagrams.net" agent="Mozilla/5.0 (Windows NT 10.0; Win64; x64) AppleWebKit/537.36 (KHTML, like Gecko) Chrome/129.0.0.0 Safari/537.36" scale="1" border="0" version="27.1.6">
  <diagram name="第 1 页" id="rany0JTdjfFC_N42RThr">
    <mxGraphModel dx="1426" dy="799" grid="0" gridSize="10" guides="0" tooltips="0" connect="0" arrows="0" fold="1" page="0" pageScale="1" pageWidth="827" pageHeight="1169" math="0" shadow="0">
      <root>
        <mxCell id="0" />
        <mxCell id="1" parent="0" />
        <mxCell id="xiWHHmvTj4LvFxewwK1D-2" value="" style="rounded=0;whiteSpace=wrap;html=1;align=left;verticalAlign=top;fillColor=#ffe6cc;strokeColor=#d79b00;" parent="1" vertex="1">
          <mxGeometry x="318" y="240.18" width="240" height="297" as="geometry" />
        </mxCell>
        <mxCell id="FvrpP-7t_MK4GON8_R86-3" value="&lt;font style=&quot;font-size: 16px;&quot;&gt;ClusterTaintPolicy&amp;nbsp;&lt;/font&gt;" style="rounded=0;whiteSpace=wrap;html=1;fillColor=#ffe6cc;strokeColor=#d79b00;" parent="1" vertex="1">
          <mxGeometry x="729" y="223" width="150" height="56" as="geometry" />
        </mxCell>
        <mxCell id="xiWHHmvTj4LvFxewwK1D-5" value="&lt;font style=&quot;font-size: 16px;&quot;&gt;Cluster Taint Policy&lt;/font&gt;&lt;div&gt;&lt;font style=&quot;font-size: 16px;&quot;&gt;Controller&lt;/font&gt;&lt;/div&gt;" style="rounded=1;whiteSpace=wrap;html=1;fillColor=#dae8fc;strokeColor=#6c8ebf;" parent="1" vertex="1">
          <mxGeometry x="729" y="383.88" width="150" height="56" as="geometry" />
        </mxCell>
        <mxCell id="xiWHHmvTj4LvFxewwK1D-6" value="Cluster Status Controller" style="rounded=1;whiteSpace=wrap;html=1;fillColor=#dae8fc;strokeColor=#6c8ebf;fontSize=16;" parent="1" vertex="1">
          <mxGeometry x="49" y="252.5" width="150" height="56" as="geometry" />
        </mxCell>
        <mxCell id="xiWHHmvTj4LvFxewwK1D-7" value="Cluster Problem Detector&lt;div&gt;(planning)&lt;/div&gt;" style="rounded=1;whiteSpace=wrap;html=1;fillColor=#dae8fc;strokeColor=#6c8ebf;fontSize=16;" parent="1" vertex="1">
          <mxGeometry x="49" y="327" width="150" height="79" as="geometry" />
        </mxCell>
        <mxCell id="xiWHHmvTj4LvFxewwK1D-8" value="&lt;div&gt;Customized&lt;/div&gt;&lt;div&gt;System&lt;/div&gt;" style="rounded=1;whiteSpace=wrap;html=1;fillColor=#dae8fc;strokeColor=#6c8ebf;fontSize=16;" parent="1" vertex="1">
          <mxGeometry x="49" y="425.5" width="150" height="56" as="geometry" />
        </mxCell>
        <mxCell id="YTg8mPBcqh7w8Qsox6Sf-2" value="" style="shape=image;imageAspect=0;aspect=fixed;verticalLabelPosition=bottom;verticalAlign=top;image=data:image/png,iVBORw0KGgoAAAANSUhEUgAAAkEAAACiCAYAAABGSxmoAAAACXBIWXMAABYlAAAWJQFJUiTwAAAgAElEQVR4nO2dvU5cy5bH64xOOBK+0XSGj0RABicmwOcBkHE/AG4nhDYOSDF26uByCJ0Y/AANiAc4OCC+JnOAdE3GRAPSSBONPKp91/Zs2ru+9q6qtWr3/ydZlm3cXV27uupf6/OX79+/K5CX5W11qpSafP2g7jD1AAAAAA//hnln4UKpSggBAAAAgAmIIB6OlFLry9vV7wAAAABgACKIAXKDHSulnkMIAQAAADxABPFRu8O0EDqYxwkAAAAAOEFgNCPL2+qbUmqRRvDi6wdYhQAAAIBcwBLESzM4+uPyttqcx0kAAAAAOIAI4mXW8nO0vK1W520SAAAAAA7gDmNmxiWmuVFKraKGEAAAAJAWWIL4ma0XtEh1hAAAAACQEIggftqKJq4gdR4AAABIC9xhAljerlxfCy0jQcYYAAAAkAhYgmRgcn8dIFAaAAAASANEkAxMfcQWKGPs0bxNCAAAAJAaiCAZ2AKhV7RFaJ4mAwAAAMgBYoKE0JIqP8uzrx/QeR4AAACIBSxBcnClxWu32ON5mhAAAAAgJRBBcnCJoIWWCtMAAAAA6AhEkBx8CiSuL2+rnXmZEAAAACAliAkShKVeUJN7aqvxbR7nCAAAAIgFLEGy+OIxGrjFAAAAgAhABMnCt2cY3GIAAABAT4oWQaN3aiJgGDHxsQTV7HMWURy9U48GOP8AAADmiNItQfogHpJrKCTOZ4GziOLtXhW/NBm9Q1sPAAAAZVK6CNIC6Pno3TAqKn/9EGQJ0jxf3lZPEg3HBz3/FxBCAAAASqRoEUTWiGOl1KsBuWauAn+e0xpUW+EghAAAABTHEAKj61YSHwcihEJT31eWt1k/9ym55rQQQqNXAAAAxVC8CLrdqw7he/rjxwFYJEJdYpoDxiDp2hoEIQQAAKAohpIi3wyO1gdxyT227jr8Hy1AWFLmb/eqtP4b+uMKahgBAAAohaGIoGZ3dS0ITgu2SHSxBGl2GK1Bzfl/OpRAdQAAAMNmECKIrBH3jb+aR4sEZ8r8bJHHIQWqAwAAGChDqhh9OvNnbZHYZxpLZ75+8K4a3YZOmc/uCpyJy6o5QMYYAAAAyQxJBLWJhzejd6x1dDjgEn6z81+6WxIAAMDAGbIl6MffF3gQ33j8jAkWa5Bh/hcRKA0AAEAqgxFBVDixrdDggkUgSSW0VtAsHNYgkxvvKeKDAAAASGRoXeRNB/H66N1cdV1/njtT7HavEm4mC9ZB4WULAAAADJB5EUGa/Tk7iDlEn2n+S7TGAQAAGDjzJIJKOoi7FEychaNukK3G0UqJ2XoAAACGy6BEEMUF2YKKVwpxi3UtmNhEi77NeEPywpXe/wZuMQAAAFIYmiVIeQiIeXKLZbW83O55iTdkiwEAABBBkAgaHarT0aH4dHPXQbwwRwfx4vJ29jpJbRl6TdZzZIsVslYBAAAwEmoJuqgalMo+XHwqLuuDOLeriIvc7j8fa9BBhtpNFwjGBgAAYCNUBB1RXy7JDTJ9a+zkOIgl8DRz8USf+c/R5+y0EruHcL8BAABoJ0gE3b6sAo/PdB0aqYcL1avxYZEpjZyDnFYv395nz1P2Frt9Wa0D0WsVAAAAL10Co+sDRR8uUkWEKy6lZmdOgqRzPqeQ9P4c1iBFaxVVqwEAADwgWATdvnzQMfzvo0ORsTW+B/ECY8PRnOgA6Swd3T0zxGrWEze4bcYEfRwdzl0zXQAAABa6psg3XR5Ho8M8B2wAIQfxc4HWoBTjkWq1S2YNarhva3TGGOoUAQAAqOgqgpo37AUSQpKCjEMrLkuzBqU4qHNa7D4H/OxK4pT52bWK1HkAAAAVMUSQEpgxFiqCJFqDYrOwvC22LEBKETobqC09uxEAAEAmOokgcjPMBh9LCj7t0nZiHmKDcomgUBG6mMoaRFlis61UnguNZQMAAJCRPm0z2lKhDwqOuZBkDUrlrsl18HcRoSljltrW6hHigwAAYL6JLYJKb0khxRq0kuh1JbvEVhJmig1xrQIAAOhJHxFkuu2vC64f5OL5HFSRlpwmnkqEmgo4lrxWAQAA9KSzCKJYi3vDP+9zuhpu97yrFrfBeihmaHEhORZmPYVLUvJaBQAAwEcfS5CyWINKdjVwB3enPpAXM/cSCyWVNci2VpEtBgAAc0hfEWSzuKwXmoGTLFPJkxwCRfJz2UzkkrQFaz9FNWkAAJg/+oogV7PSg0IL0w1dBEk+8BcSiTTXWkWQNAAAzBmpRVCpndqTxKZ4Mu8iSCVaM660/cXR4VzUigIAAECkiglqsgNrUBA5RJBOlZcshHS6fOx+dC7BrgpeqwAAADrwa59J05WjR4fOH6s7tWezCEWqNzNhqhu0nul9njhiuriZxFwzOkPMc63uSK0evrS2MbGI5KPry3Mfoef7Xo8dF4Fv15fnSV2Ils+b/L1nxhFrPehL49315Xmy793S2sYTD0vvl+vL89nWRyx4jjfq2rZhedYXKZ9bE4/vXihfqIq/fu6h1fyzs7S28ciy959eX553KcZrpJcIIm7I7WXj1ehQHVCqcinoAOnV271O1Y87kTlrS1rn/1k2mVypO7RWJW4WE4tIvvC0djmhTejUUrTzPrVLlcbw0fT+S2sbpxk39DcxX2xpbUNR26ELOuBj7jFPPMZ709L/kYsjj/Mj2tq2sbS2sWmZu82Me+bj2GuuZmlt455E0UVOYRfIxPL5YwvE3u4wFbA4S4y3yO0SyymCpMcFLSZwifl0t18oNI4tJgeOquU7sW9jLdi+e6mC53Oi5/eVUuofS2sbF2QRycUiWdlYoc/sEkA5sc3JytLahvSLow8LdJHSIuOvpbWNu6W1jSNhn822/z6nC1I0YoggX54XGG+Re6PNuRHquKBUCz/W63Jt1HMbG7S0tqE3oOeWH3mbyRXlEqJDEqrrdCCdxt7gLUhodi3mGdK8P3X82BAvRwv0fecQ4z/hKYzFWYJCyLWIYh3CKawRNnKr8VTvF2sj57rtz6U1iG6Df7f8yNn15Xlyi67nRrjCvWEnQB/CF5mE0DrFnrBA7+0SHTnxOVg3M4pUDmoxfsG4NnyeQ9S9Oac7TGW8Ycd8j5wH8VBEUCxyi9AmcyWCaHO3xQdcZbQe+L6PBGtGbFYyCiHOEAVp3y+f8SwMdM3NosXQl9wuU1rzNit0zWLMC1CMwOgQEVT78lOb02OLoOSbxfJ2Nebc/nHp7jBFLsJY8SffArLvFkaHanL7cm6KKF7Q97MNHUw5yRGIHLARKooP2GHMePl8fXnu3IzpVv2Y1vKmI95K0b8fZbiAVZaN3PNHz1iMmAiMTdphbrPz1mWNJYtufQY+ov24/uX7OfVe8FG/1vXleS7BGrImdmJlN+d2h6lMN4CYh/BKps7yHKb9VOn4psO0CzEPgtAMk3m49elN0xUIPckQCP3jvRL/fHZ0erfOwtGH1/Xlud6b/vAI0n+awd3HFWC+GXmP6EvIGopqhUiB/q7SetO/TmndbV5fnmsh/ptS6jVZdn14pQOnMw09RBs8jeWy4xBBK6PD5C6O2KIlx0bB8sWKnZafwH21nkmEtr93+rXKCpm8X1nG8DZzTRnTRngf+PNiocNJf9+PO85FTDhcYmIyhR2WR9OaK/ZyRIL8IECMK7K4Jn1mDmtc0ufAIYJUhi+3y9wcSg6BwnW7iB0Al0KwxJqbLoJmsNYgMpvbTPvHOQKhG+OxbYSm5yD+Zm7i+vJcf6Yzy4/EDBw23fyzzp/lGftaJmJjWlc3FrEWPU2bg4YYf20RGjVvEq8T03M4s9S0EiOCuhyiySwriXp+Jd0kKB4otnDzJfZnSzFXsV6zy8Y1SBHUKIhocktcMVhZTHN9RdaoG8O/lxzEbh17xIPnTog1zfReXEX7jJWJHQUlB5M4oS1DtMeavl81RynEn8Mad2qJIV6kApe94BJBOug0lRBKIYIWEzdU5bzJxl7UxYlQBynXKie2Sr36sNzMGTDr2AjrTdB0KEWLD8gNtYOwWUFiumNZ58+RFp+tMn+Nw/JYt+owuYsGdTmimL9VhxBK1RDdNpenVNU62QWIyx2mElqDUh2YKWNDOA/Z2J8rxWbKZSWrGZQIIv++zdWymatXUwPbRng083vo/5eOzQoS85Jic33mmD/TgfU5R1uMFoyusEYiQFIrhCTo0rPpcI29SSCYTevirHERMwn43vWuhiiCUomVlNYITktH7AWdJOMsUlPcrgxms3P0R9K8Zuon5NwI6WAyWU1KFkFZLG40fywuRUdafPYyFJ6WR0WH7+ACpE3QGnHFAUb73A5rXFP42AR8r7UbQwR1FR2p3Awl1L75AbWu4OyfE+29Exc2jPHaXQWaXqvFVyemG5PtwDmm+ICsBGyEyrIZDu5mngjT819IXBzPlBZ/z9TM1cfyWFtHBueGtUF7gM0tFnOdmF7rvtmeJ6VrMoYI6lPvIerBQqnUqQRFqpo67IdrxDR56SKoD0UfsD6B0JStxIHXRkjYbubz3vjWB5sITjl/JuvCKVOxS6NrrsUVzO1G5MBmDYqSUegRED1LEgHfSwSNDnsfnrEPlqQHZSJLh4QvUSwRlFLQ9Zr7CPV+SrcE2Qoi3nN9vgC3RIXjZs7aD6sHtrUZNWDYcaNO0indYemrBYaENH1lWHNsbkQu6PJhiw2KcXbbzr424ZnkAtTXEtR3w1mMIKSapP4iRd1gyQLDHfSrIgZfppz/vvPU9zOuRF6r2fDoDP+EsfWEl1vC8+9VoYeS7XuTImA49/zZrC7Zs8ICLY81JmtQajciJzY3ZQyxbFoXV23rwnEB6izguUWQinxwphZBsW9JUlwsvT8XlRBIGtvU0xIX49kVZw2iW6+tM/wLpoOoJmgjVFTkzXIzL+pAojgmk4vyJsWzoYPeNH9RCwE60uKlBUTbDv2hZibasCVI9AoPCbXGNYgeID0YEUTxQKnidmpii6AhmVJzCIQ+602aYE9OIw7IxLHl5ptjfD5uEhNDuZnb9oCUAcO5DnXT57thWnuhLpgKskKY2pyU6oZ1Yc0S7ek67WIBdmWIbnYR8H1FUIxDIdbBkuOAinZDEpAV1iTG58ox/9yWoNL6iNk6w39mDISusRZJc/zf4l1i5Ka0XdxSZurlmj8xafFEsOWxwVxUkK7xqBXW6dxwWOOOPVzzxgDpLt6VviIoxqGg44JiHMI5XEsxLU2SbqsxnmOO+e9z24rx7CTEb3nh6Ax/w+2K7bsR0r+b+m4lCfCNCY3P5qZ8m7JgJb22ybIRpdwAWeRMIlxaKQanKHO0bpkMoZ9YC7YGq1334z6XH+V4VsG9DjuLIAoS7ZMe32Qe4zUG40emWJ1Ya8FGpy9dzE7wJdQLcnSGz94Sw0Anc3jAz4m9mdPzsbkabjKJhNTzZ3oNn9t+ClKuuU5WiMLpKoJsLlKnCHK4JoPT9/tYgsQENNMhnMW1FKNy8fK2st2QSiSXoOt604ppFSjBwmA7QO+YWhTMYtsIvSpWO27mneIDUqLjRpbWNvSYP1q+/9lEKs2zKb6iV5wLHUQmSySHFaivC6ZmaJmJWaH9qbM1roFNLAWdR31EUMzDoG9QWWlWlaFlE+S6AXV1R8UU7GIDIGmjt8UBKdqAsh9CTfq6JWYwbYYibuZ609eWHxI//3T0bNPsZM7WS9WOwLTHSUuLVyEB6Bx1lgaGbU15f/cdF6CgDMdfe8xvzA1GWtFFG73GSrWBUmexhdJ5PDmtcD2IKYIkb3IuAVSjN4lTH9NzImK4JWoOLK6//cQBuNpa8j3Sa2kL0IThmZzSHLatGy3e9kOtUmRB8i6AmYleLpiWz2DaM3cGnDLfCxImprO6rVK3iyNLH8SJ72WvkyWI4oFiHnx9DmHbrTIFfQVbcOCWcLJ+4UNrBSVYq1JFkC0Quo0jDneRwy1xFroROm7mUcr7Z+CKClZmF6UkcGLHudi6s3PUBoppeXRVUxbnhhWErSZWl3URxTXZ1R0WfWPpkSFWjOpe3la2A6BUcs9/6DqJbSWUGssV6ipcENi4sut4Si1kd09ZYKvMBStju8RM/4fLChTT8lhjc8POiyXIK3avgWld2Cp1G/G4AHnt/V1FkIju71QgsaSI/EEFzo3eWZW9FKKvj4I6yusMiteWf1+nWjU5iboREraeQlErIEeiEj/aqnx9ec5uGfaIc/Fe7wLT4m0Xzy4umJpUsVTSiGL5plgp00Wtz2Ws9wUoWASRxcYV3JcLjkO40wFIVqChZQ+IvvHQWpUWf5ULnfGiY0wOHLU+/p4rmDO2W6LG0VNICV2nRwLKFDSJ1Sl9iGnxP+GoXFyKG9YKCUjb+RpivbSdfZ3FscM1+dQnw7GLJSiV5aXLoilJVOwMKS2eeoVxiOGQAzvVWpVeIv94phr0xNEROpebolPLAk84bub3JDBNv0xzvsDoGmrFI9vGuealpcUTKSyPNUPvJ2bba+99Ra0jINqnUreLXhegLtlhItxPFBBdRAXfgVqBuD5PiGsj1UYkWQRdzbbD0CZ/clOcGP6PdnkcXF+eJ3umDreE5p9Laxup3r6KD0gQePzl+vLceHkjV6OpKnTliiRLnRQOLOOdeCR1iEqLd1geFyJm9rXxnDLrJNTk6orNMBHyPG0em5XEz8G5boMsQZRpI8UVVlqTxCFZgR4V4AqTWIogNVemjYsEgKnNhOZVYhO+5D5lSSCBY5vzbK5ITzpbNoSmxc/dmouMzeAREhTNaQBYdDVUDnWHpXyo3psBuWKKyLIasBVIuqhLuVYlpsDWadY2E7XTLZYwiJj7O+AVH5AAzjkPwqMdge07JS0tXkImbrEiiL4rNk+Ll1XVERCdi2JEUMhGUFKtnUFZgYgSvtwiBHtGdjybjtpud4spbu0Ot0ROOKxBd473XRG2n3UNkC4pLT4XURrRMmGbv5sA96YEA4C1BYy3CBodVpsn+0ZWmBXocSFWINtN9QGjd9WXQ3SF6NGh/DFyQf2i/rS8/VOX+bgDUkQzyzg8XZEiDktH1lPrYSItLZ6Qsu8WZw0iK5pt/nytQJJK2Bg/T0hgtJRFVZIVaL8QK1BIkFsJ849Ghnb2aXMyCcWDpbWNixhBnQ63xE0iS4FJBFcuHQ73DI3pi61EgBYYQtLmD6jJaxs7Ld8v00HPkhbvsDxeJSoSamrf8JSea0kB0i7vha+wtQVEf+5QbNHFI0sLnYnpXPASQVQcjj3ItDAr0JOhVYcevasWkXQrUDFZg1zog4ksD/8wDKFO4Y4RKG2tEJ2iWODS2sadI8spuwiiOdfv/ZfhR+oK3uz1ZbRI1NmChgNss3mYkGXIdDZwWYFsa24/RXsSR2B4m3AUCX0O21iPAwSd7XUmKYShpUzDgukC5OsOk3L7L80KNBgoI6yEzzS03mxJILfHW8tra9dHjLlMUiTNgU3kWOMDUuLhiuSo4G3C9Gxm41xM4+VKi7dZHu8T9mcrrViniSOHFchrT3AERF8ltIwF9xNziiBBVqBiLCvL29WiH1p6tpQAb+PGKmWtlgJZYUzxH5o3fVK4XW6JVBuhI8tJMd/KXXO+LyRt3naYNEWQ6YAfUp8wJ45ikwsJ4uyis7S2YeuOr/kzkhUopYXQ9oxX2r5bPpYgWIEeYvVxU0q8pAJoPlh9s+SGNPm8c2Obf1iBwkmZwp2yQrQLkTdzj2wxEdWk6bAzBXNXIogsQm0XI5a0eMJ2+KYeU7EVpEkA2YwMNwFWIFdAdLLGzV0uQFYRJMgKJMmy4jLxusyJJSJe1FH2IqxAgZDLwra5dUrhdrklUnewl3wz93BFrlBMDjemMSyQADIddCwCyMPymNo9J9INa0N/T5fWNk49vCyTgCB3W0B0jmB5qxVz9lLnsgSx30goFqUIy8rydvXwpVTUDsG4KKlTfAmfKecaKbkU/k94NFntksLtCojOkTUUHB+QCw9XZOoK3k4ohskkJCeWg1NiQHTyMTmsZ0qapZrW1xeP/f0FrQVfOK1xrnW7MLtOjCJodJg9E8g0yUWkmRfqBqtpvSEJFKD3bWMdHVZrJOdaHZQIImK7xVg3Qo/3aY0PyIxrzk8FVJM2ff9NBydXWryrQnRSy2ODICsEB1r86BIYlKno2jePQ1ybjoDom0Ax1QfvhsqtImh0mD0T6L5t0BQMbcr758JkUj0aYIG+3OLCxc7t3kOrFfUIQ12gntAtNkqsisMtkW0j9LiZc1uDXK5ICfFBRyHFVBmtHba1m02YudywXMUDtTjRmYdLaxtfSPz4hA4czzZj9kDC5Uc5RO9i08pqqhOUO65lcvty5nD7lxWC3R3Xwk9fpoLdYDU/W1fkCdDPt3ut62GIMVgs6A18aW3jzLKWn3p2PmfJ0LG8n+nzVDdzzgKFei7J1Wg6lJ4yFnis6xv5xIwoSovnspL2rnAckVPL3rnT8zvwJKB0xSNq8bPaYY98EbrmPAKis61hvQ4de9mk9j79ZAmiANOcB/rZ7cvWRSrNCqFI4T8QDNQaQ6JY8+X+6wfxAvS+7WAlly1HMHQuky4HLhfNvi3A08MtkXVd0c3c9Hl+ig9gwjXnB8xBtb6HLovr3MPymFsE2eahrxt2nTJ1fX69op8PEUD6jPu9o+i2VohmEMi2z/C8dk0+EEHkBsu5Sd20Hm7/CsaV5gZTlcVq7ydL0Gnhloi2G9SBMAG6f7v3MA6H3GBIiY+MR5PVhR7p52dMlgKxAdLq/912tnG45jwpND5b4LxiEhs11iD8vEPxmi+p7nudsbjaI4tOiiuswuGaVPV4Zy1BuQ/0NjeYVMvK29u9hxaA5e1KLJTcouH464eHc03lCCQVpTy73Wu9WXG6wbJXws2JR2XjFYtJXpJbosZ2M1/kzsJS1KrCEb9km/McuPZkLiuQy/LIldjhZYUQgq6r85vOWOzqGnYERCcviWHBWbvphwiiDJucroW3ty9b3QoSLSs6HuXBBkRxQBKtVb5czR5Yo3eV71haNlibGyz3Wn3ArHAfKPuOW9SbWfHgcEvcM8a1uG7mkrrc29xiP815LujZmdbDvdAK0WwxSjRftmfJveb0/v9aKfU3HfwcYZ6slx/GuDvbuqxawFQiiIoi5qwIrOOAfrrVjN6JtKzczLoHlrcrsVB0HJD+EjZjgRpxQJIE6JOWbLDca3UWl1tgEHhUNlYtafOi3BIziL+Zd5zznJjmkPOQE+WCCXj/3C6xz2TxeUFWH+32Oojx3DwCotku1h4ZopNfKbYi5wZ1ZYgDmgi0rGixsNk8iKkeUOkZSTtfP/zk0jkSJkBf3+49HCPDWm2D0wq0QxkfbUR30Wm32NLaxu+W95zlwLLxs7oQqTN619vuH4a/j74WKEMvZM5nOTIE7scY64HhtWM8W9O4Xa9vE43cbuv9jvvVF8uaCyJjXR6jCOJopDvDjk2I/fIff37fpBS6XJzevmxNyZYY5Prldu/hIl7eriwR7DEEPfjWEge0ylW/wsBdWxwQZS5yF7i7MLhxAQAAFMYv379/xzMDAAAAwNzh00UeAAAAAGBwQAQBAAAAYC75dTytYizq8tqP6fe86cf/qzbU/6j/bozjEcs43Pzt+39Wc/SI5qr5S9pYfbg52VWPx59++ix1qXVJBRM/q3//ERjMt1aVej0dF9soFwAAQANjTNB4WgWhbjpKYcfib9Nxe/bC+FP1/k9oHJyH8v10y56x8ez9j6DpzUKKKH4+2TUHeY8/qUeNNcDdG+3P6VZ7WmljreYo8vjHdIzAaAAAGALOwOjxtDoId+hXCjF0Mx0rr744JIi4+kWdTbf8M6ieva8+Uz1eqd3l357s+mXlkSCaMH6eZ9Mte7pphrWqpmP1S4rXBQAAkB/v7DA6YPYT1PI5no7DqmeOP1XWi+wVrqdb3dL4yULEWuXYwLOT3fA6FuNP1fPK3eD2t+mW8qrzknCtXk3H7Cn6AAAAIuEdGK3dVdNxdcP+3VFOP5Rg18J0S11Mtyph8Ufksdjo7AI52VUX5Hb6Q1jF4U6fabqljqZblaXrbfwhtXLjK4DUw7Uae33ADQYAAAMiODtsOq4KHa5GPMw7HyxaDNFYjiONxfVevWiIoReOvjI50EHRvarIkmXsd6oCnpJOFUcpdkfEWgUAACCPTinydNN+EkF86HigXo3bplvqbrpVuWde9ByLjaiH/MluVbH5saOnSWqiHOjTrUqgxFgLNroL5XhrVUEEAQDAsOhdMXo8tfYzcvFtOo7X5G78KVn7hy+uoNyuPHvP1gpCW6WiHuoUK+QV5B7IUYg7zDi+fmv1DqnxAAAwLNA2AwAAAABzya+xPvR4+qPQni93FF+UhEYBwL7ckcsnOc/e/ygEmJq7k920n4ky+GLwLYYV6MHYwteqQm0gAAAYHtFEEB0qfwX8/FnizuWh4zHxOXPX+IMMhRaPqeZPSiaRihfqWK9oLlNCC82TgJ+/SeTmAwAAwEi03mF0Uw4J9E0SY1ND2VyvI7xU0nE2oWytJxmyrZJbNShYPcbniD7W6bh6pmLWKgAAAB5iN1BtbWtgIPnBMt2qrCp906OzHoANIZSy/lGuz7TZsxTAVWxXWIOQtRrbEgUAAEAAUUUQpbv7pCKfmXqFJWDS4yAOKtIXCxJCfQWEiau+9YF8obkLERuzJBMfAWv1JmXsGgAAAD5iW4IUtStwkc26Qgdxp3YXnG4QClxOEbeT1aqhq0v3sMalnn+flHdYgQAAYKBEF0F0w7bFgtzHrA3kA7nFuriXWA9A6uv1Z+SX5chy6iJCU7rCKsjC44pbgggCAICBksISpBwHB9ehEnoQ3+RKjXewHzE+6CZ1anwbFKQeWh071zqxvc9Z34rmAAAA5BIzRb7JqaUyL4sI0m4Zqh3ki4i6MDp+h6pKxygnwCnq9gPfP5cr0rZWkRUGAAADBhWjAQAAADCXpHKHAQAAAACIJpU7TLcm0O6PN42/0qnG7FV3x58qN7WM+3YAAALiSURBVNe648deUFaTKJ69r8bUtQrz25PdzllyURh/qtxO/+V4rfvpVucmp50YT3+aVx28n3UMAAAA8pPTEiSlA7crzuNeogAi+ogY9viW6VZVn8iVjcUxztngZ3SLBwCAOSCXCLoXlGrsCngWewCe7FaHdWiWlaICiVIK/rlEDqu1itYqRBAAAMwBuUTQQcYK0VY80t6l14XpMj5Jn8kmQj9zVOieQcxaBQAAkJYcIkjizdpUwfhYwCFshQoohrbTkCSCbPPLvU5gBQIAgDkihwjaF3izNh3EpRyAIXEzx7l6hflgEZm6OCVX3FIdBC1xrQIAAEhEShH0hDLCJAqLtoP4s5AK0T6EiAWJ7r224GjOWKBVwWsVAABAIpKlyCtVpcP36SCekm8tLjHugFxvtEvs2XuvpqR3J7syKl/PoMfUtLjcMWfkPU7UrBYAAIBgklSMHk8r98LpdFxZgwAQy3haCSAdDB2jLQkAAICCSOUOW8XNGhSCZIslAACAhMxl77Dxp0qg1SLtYrpVjius5tn7yspmG/cBZZKJY/ypir1ZpXHtU5d5AAAAICspY4Ik87jROqM4AdTA1v5DsiVulcZ+AwEEAACAi3ltoFqnRB8XfAjb6u0cU3VpqdTiDW4oAAAAbMyrCPrhimEeR2ccIqeEz/WZsS4QAAAAMNci6K306tAdEW0FGn/6kTEIKxAAAABW5k4EjT9V8UB3A26PIN0KtEpuyFIKUwIAABgo82gJ0paInenWINsjSI8FUiSCYAUCAADAzjxmh30ZsBWihFigg4EKUAAAAIUxl3WCAAAAAADmNTAaAAAAAHPOvBZLLJ5n7x80/Tw92UWgMQAAABACRFC56ADjN0qp+wFnugEAAADJgDusXH4UfDzZRaAxAAAAEApEULloEXR1sgsrEAAAANAFuMPKZVV4k1QAAABANLAEFQgFRV+c7KIDOwAAANAViKAyQdVlAAAAoA9Kqf8DoxIrcrh1XmgAAAAASUVORK5CYII=;" parent="1" vertex="1">
          <mxGeometry x="739" y="519.42" width="137" height="38.47" as="geometry" />
        </mxCell>
        <mxCell id="YTg8mPBcqh7w8Qsox6Sf-4" value="" style="sketch=0;pointerEvents=1;shadow=0;dashed=0;html=1;strokeColor=none;fillColor=#434445;aspect=fixed;labelPosition=center;verticalLabelPosition=bottom;verticalAlign=top;align=center;outlineConnect=0;shape=mxgraph.vvd.guest_agent_customization;" parent="1" vertex="1">
          <mxGeometry x="52" y="463.1" width="20" height="18.4" as="geometry" />
        </mxCell>
        <mxCell id="YTg8mPBcqh7w8Qsox6Sf-5" value="" style="shape=image;imageAspect=0;aspect=fixed;verticalLabelPosition=bottom;verticalAlign=top;image=data:image/png,iVBORw0KGgoAAAANSUhEUgAAAboAAAFdCAYAAAB1tqi/AAAACXBIWXMAABYlAAAWJQFJUiTwAAAgAElEQVR4nO2dPVYdR7e/23e94V3r+J+RIWdk4BGARyDpDADJCaGMA1IJKVVgrFCJkQZwQCO41gxEpuyKjOyKEei/utkNzeF8dHXXx95Vz7OW12v5RXCo7qrf3rv2x08/fvyoAOAhWwfVz/V//Pq++s7yANjlv3h2ACs5bwUPAGyC0AEsQTy5b1VV/YvYAdgFoQNYzXFVVduIHYBdEDqAFXx933h0n0XsTlgrAHsgdADrOZWveLZ1cPvvAGAEsi4BerB10NzXTeQrP3x9Xz1n3QBsgEcH0I/zzlfh2QEYAqED6Mf8/Vwtdnh1AAYgdAnQk62DJjFlc+6rf//6Hu8OQDN4dAD9WZR1+c/WQfWENQTQC0IH0J/zJV95unVQ7bCOADpB6AB6IjV1nxZ89UQKyh+xlgD6QOgA3Fjm1U3oiwmgE4QOwI1lQle1rcJYTwBdIHQADkij50Xhy5ZtauwAdIHQAbizyqurpMbumHUF0AFCB+DOOqGreUVBOYAOEDoAR3qEL1tOKDsASA9CBzCMPl7dhDl2AOlB6ACG0UfoqlbsWGOAdCB0AANwCF9WZGICpAWhAxhOX6+uYtoBQDoQOoDhuIYk/yE5BSA+CB3AQKT35YXj3yY5BSAyCB3AOFzCl1XbE5M1B4gHQgcwjiGitbt1sHC2HQAEgAnjACPZOmgyMCcDvsvTr+/x7gBCg0cHMJ6hYnXKDDuA8CB0AOMZWhDOfR1ABBA6gPGM6XyyzX0dQFi4owPwwNZB9UUGrw6F+zqAQODRAfhhbD/LU+rrAMKA0AH4YazQcV8HEAiEDsAPPiYU1PV1hzwPAL9wRwfgCQ/3dC2/fn3ffC8A8AAeHYA/fM2d474OwCMIHYA/fAld7RUe81wA/IDQAfjDZ7jxj62Dao9nAzAe7ugAPLJ10Izu2fT0HS+rqtqRaeYAMBA8OgC/+ApfViKYhDABRoLQAfjFd7YkIUyAkSB0AH4JURZAFibACBA6AI98fe81dNlCCBNgBAgdgH8uAnxPQpgAA0HoAPwTqqsJIUyAASB0AP4JJXR1CJNemACOIHQA/gnZp/LV1kG1wzMD6A9Cp5CNN4SnLBMoIaULE8nnqPcM+waWgdDp5HjjDVa7cUIkpLQwzmeOq5dN95hTxA4WgdDppLbY/0XsTPMt8Ic/JjHlAV9k37AucA+ETiFXL5tD8gtiZ5rQ8+QmhDAfcCqTHxA7uAdCp5dTOcwQO5vEGJz6jNq6O8RA/ITYwTwInVKuXjZCd43YmSV06LIFr+4+p/Kn7c6/Q+EgdLo5l0834aLdFl/fR/HoarZJTLnj6mWzZy7lPzzeeIPYAUKnna61TjjGHiEzL7uQmHKf886fniF2gNAp5upl4xVcdj7htud5ZxCWWANTJzR9vsd8OLcWO7zegkHo9DO/abexUM0Q0yipmz4/Mr5eXpCklHlv+q+NN9Vzo78SjASh08/5gk9IOMYGsTy6Ft6JOxatxT8bb8hSLRGETjlLrNNKxA4LVTexElJadik3uGWZ6J+TwVweCJ0NlqWQ1xbqk9IXRzGxSgy64NXdtQT7tOD/mojYkbxTEAidDRaFL1tOsVB18vV9EqHb3DrA0xeW7ZtNMpjLAqEzwArrtMJCVc9lgg9IucENqwzEbYrtywGhs8OqTbtJ2YFaknh1DGhdayBWcs9NWUYBIHR2WCdklB3oJIXQ1Rzi1TWsMhBrXnHPnT8InRFWZF92IRNTH6mEboJX17BO6CruufMHobNFH4+NWiFoOSy9iFzCl+sMRHrJZg5CZ4s+1mlFcooqUt6d0hrshj4GItMOMgahM4SEL/tk8U1ITgHhWelencNeeExySp4gdPbo69XVySmkT6cn1R1dl6IP7wXN0VfxitB/fiB09nDx1P4goywtiYrG58Grc9s3hP4zA6EzhgyWdKG+ZC/9kAPu6lz2zcTx60E5CJ1NPjt8ajZtelJ0R5mndK/O9c56l/u6fEDobOIqXNzXpUVD+LIq2avrWWYwD/d1mYDQ2WRIRiX3dVC6VzckssF9XQYgdAaRLLLrAZ+cotg0xB7AuoqSu6UMMRAn1NfZB6Gzy9BNy31dfGIPYF3F81J7YF69HFxbWtfX0U7NMAidXYYenrts2qIpvQemSyJXl2Oyl+2C0NllTOcTNm3ZlDzZYKiBSDTEMAidUUaEYSo2bfHUz7/UxKQx+2abkgObIHS2GRqGqdi0UdF0R9dS6rMf2wP2FSN97IHQ2WbsAcqmjYOmrMuWza2D8mYXSj3d2AJ+sjCNgdDZxseEAjZtuZQ6pHfsviEaYgyEzjY+QmLbZGEWy+7WQZEevY99QzTEEAidYWQ+3ZDC8XnIwiyXEo0cX3emtNUzAkJnHx+blu4P5fKstFKDkRnLXahJNUJQodt4h2sfAZ+bttQ7m9Ip8bB2bfC8jGyjITmd36E9up833uEpBMZnZ/wTemEWSYkGjq99M8k4hHmYi9gFFbqrF423sYfYBcVnjdaEAZ1FUmKpgc998zjTcT51U4l/cxC7GHd0tbXzDLELg0wy8MkfzOAqEoRuHNlNBrl60Qjd9xzELobQtQJXix3eQhh83Te0kE3mka/vvd2jhmS3sFl1voVuM9O7zlOJ9JgWu+BCd/WisQg+yB9fbbwj4SEAvidYU1tXJsU8cynN8c1hhokpraPS9MfdeGfTa41VXtBtIPwPYuedEL0Uj0lM8YOhouzS9qXvSEh2iSlXLxqD4JP8cVM8O3PnQhShk1hvt7/cP5QeeCWEdUpiij+sHAyTwpJSQuybHBNTuo7KtseSpmjELBifHwuTRTaPEkJs2EoSU+iYUhYlje8JNVUitzvu87kOTNvWkgtjCt38wpiO+Soj5BgYsmXL4nFBSSmhDMTtnJovSJ7FvKNSJxeaEfRoQnf1ojmM58djmI35akJGj4Ril3KD4iglfBlK6KoMmy8sGtT8h5V8i9i9Lhct1jbp7F4YM4R1HTyfskDoxjPJKYtV8iwWNZA3kW8RW+iWhcGosdNNVqEYWMtmCeN7ApUYdDkswKurJCqnOtwdVeiWhC9b6hq7ki7CfRM6EwpDpCxKqakbO218FbmVGywTOvX5FinG9CxbrKppo0MmplY2KSIvilKMztBe3bOMMpdXGdOqr6C0Cd1ExI7kFHdCZl62UEReDnVNXQliFzKRqyWLaIhkX35a8SX1FZRKYzi60MlEg1VTsbdJaR9EjA2b1QV7RKxmrZYgdDEMxFK8upq/Nt7pe99TTRhft1iPtVoGiokhdFWGF+ywnOKmjwcklzvuVRG526/RFpVLJXR9Fusv7uv6E2BczzLw6soid68u9B1dSxZenfS+XNcjdNLzjI+GVo+uhc4pOsGrKweEzh+5eHV9zu9dTSVjSYROrII+ab2b3Nc5seru0yd4dW5YtuQfE770Ri53dX0dlVda7utSeXSVg2vLfV1/YoUvK7w6J6wfbjl7dTE9uioTr86lZldFVC6l0Lks1jH3deqYFDi/rFSyFboI3VHmMe/VSZlB31l+Ew1RuZRC5+J9qFgseACedj+se76EL/1SmleXPCqXTOgc7ulatumHuZbY1ukmPTB7sW3gM66DCRb+yOGuzrXl4HHKfpgpPbpqwGKpudxUSmyhq+iBWQw539OF7He5DOsGouvZnTQql1rohiRP0CJMF7VXRzPuJWQU8iMhxS+mk7nkns7VQNhNFcK05tFVUnKAF6EL7uqWk0sSVd37kmiKP3JI5hpyficJYSYVOhnbM4Q/yMJURT2FnOeRP3jufrFuIA45v5OEMFN7dNWIydhkYeoCr24xORkACJ1frIf9hzoq0UOYGoRu6GKRhamLZxSQLySnNaknj+fShV8LZg1EmUQzlOOYuRYahG7MRfCh9hHukQk9ZXwdeHUPye39xKvzy67xUoO+hePzRA1hWvboKgrJ1UFN3UNyEzoSUvxjOTI1xlF5HKtcLLnQjXR/K4n3YmXqgFKDh+QWzn2s4DPkxhPDYf+x/XWjOCoaPLrKQ8HmCbV1asCru08OXVHuQZmBdyaGQ8JjhW4zRq6FFqEbW7C5yf2QGh5nMopkNBn3h8Rr94/V88tHsX3wXAstQudjvAyJKXrAq7sh19pCPDr/bFusRR1RC91lEvqeUovQfffwPYIvFvQGobshV8Nrm2kGQbDq1fnoFfosZGKKFqHzlRYfdLGgNySl3JBzhIF95h+re8ZXr9BgjkpOHl1LyV6dptAHQpdv6LJC6IIwMTr2ypfQBcugVyF0nuK8LSWXG2gKJ9EpJb/Sgi4IXRgsnl0+pz+cePxet2jx6HwTZLHAmdK9ul0FnyEU3NOFwWLWsk+hq8sNvHu1moRuaHPnRQRZLHCm2JKPQnpC4tWFwZqB6Huen/frp1w9uooMTBVsF1xTh9DBUKwZ6T5zLKoQReSahM7nPV2FV6eGUsOXJYhALr+jNqPElIHoOcei5dBntytNQufbKqgK9Oo0bo5SjY0SPLpc2pttKvgM85Te6Wnicw1yDl1WBXp1Gg/XUsOXRUxcp+9lMKxFQnwUjc/jzavLOXTZwl1dekoMX2bXzHkJCF0YNo21BPOdkFKJV+fFUck9dFlxV6eCotZ/66AMb04w/bsqjzZwbnkKX+YeumwpxavTeuiUFr4sSeise3Sa38vS61ArX45KKUK3WUi3lImCz7CMkjZtSUI3KaRmMAWbhgzEEKHLltGOSgl3dC2lZzGlpqQwTElCVxn/fbV3d7FiIIYUutGOihqhu3oR7I6uZTfnyQYGLq63C+p9mXPrr0VYFjrtn517uhtGOSqlhC5bcn5pLIhI9uHLwhJRWsi8DEdJBuIqakdl8N4qTeieZTyFHKHTQYlCh0cXFpJSbhjs1ZUmdFXGXp2FDUtbrDyxnJCCgWiHZ0MLyEsUOpJS0lEPlsxdCEr06CrDv7cFgSY0fMeg87tEoZtkWkBuZTNka53KfLZSOqLMY1XoNPa5nKcEA7Evg87uEoWuIpMpKTlv2JIPI3NCZ6yJAUJ3w6BSg1KFbjfDpBQrKe05Z5GVfBhZ3E+WPjP3dHc4OyqlCl3FXV1Sct20pd7PVUZDtpaEjjKDOx67OiolC102h63B+H2unk9pheL3MDiyx5oXSvjyDqfzu2Shy6n/pTVLL7sNy1y2BmvvoTUPnHfsDqeIXMlCV2Xk1VnbsJaa1faFOxR77yEGol02XTqllC50gwsQlWHxbii3TcshZO89tBZq5p7uPr2TUtQIXcIsyBwscYveUTbCUHj9XBcz76HhiAIG1R32hC7hJslB6CwesjllKHL43GDpPbQqdFr3TYr1nPTNsyg9dFlJqqrZcICB8TzLyCkMw/2cYKjnpVXjROvnVu2oIHQ3WD6oLCd15OIJ4dHdYeV9tGogFl3CsgBzQpdyg1gWOkakJETmz1nolxgLK8/UrIFI38t79ApfInQ3WA5fWn7pc9iwHDr3sbKPLCcPaTQmUn4mU0KXGqteHR5dWrifu4/6Z5qBR6RxjScJf/ba54lHd4e5l19SpFO+YGOZWC4cl7IC7kzuY8Gjs25gldxTdRFri8cRujssWuY5vPCWfwe8uYdYeJ7W942qsOvGOxVOwsqaOkKXd0yUPDAXELq0IHQPsRBhML9vSEh5wMr10CR0GkJA1g4ukjnSwmGzAMlEVYnUbubQxUbTGmu4fthe1V0Lj+4+1g6uHO6HTFrXWweNUWT5fjQkmu/pcrnfQugesvT8ViF0ikKGK60CTRjuiDKP1YQUwpbL0fw8c/HCNa0xQmcQKxshp7AZQpcXCF14NEVztDzvpXtSi9BpevkQuviY+l0IW5omm3IQRVEdLZ9jsqzMQIvQaYrpI3TxsebR4c2tRuW7mWGmopZ9o8noW/iMtQidpvumTe33dGLJ5eRRIHQQg9yELvm5qbAkC6FzQPuGyG3DmgknbR00hamELVejNesSj84/2p61TqGTZsraDg6ELjKGZtPhza1HXZ2avF+5tWvTIHTanJSF93QaPDo6cbvzWPnnG4L6cgnpbZnj2pdAjsX9GoRb47oidD3Z1jq2J+PWPxbu6fDmeiJGgSay3DcKIiEa9+2DZ43QLUfr58r1sLUgdIcKPoMVtO2fXPdNsnUWZ0Dj0GE8Oge0WoBs2ARsHTRCnEOPxOKQzju5ToFP6dFp3bMPInIahE7r4aFO6NiwScGbs0vOIeeUYqM5HHxvXZIKnfKxOBqtFTZsOlbOu4IHaApF57xvUq6z5j17T1tSe3SaF2qiMCEl5w2rtjaNll+DUCF0mZYVdEHoFqPHozOQCaXmQRawYTVPZMCbs0vumbJJjHHpHqX5GuWeAYBHtxpNQlxCaru6ezpJQqF2zi6575tUOQ7az+5765JM6AxYBBX3DNHRWGKAN2cUiYJgpIRBfV1iNwckpUdnoYBThdVS0IbVKHRkWw5Dw94posA/URMJC+f37XmC0K1GS+kDHTkSQAPnUWgIQ7NvAiBJehZqShG6vigZ2VPKhtUW9ydsaZTCwpaxjQpzMzuTCJ2R+7mWpEInReJs2MhsHTSbJOss18wpyZuLbSBaWdvb8ySVR2fpJUxtvRB+SQPenG14fuGw4tHdhldTCV2uHfhDUNKGVRG6lJKCZwo+CgxAoiAleePRIiHGonG3V0+phM5SKC6ZKEsBdUmNhLUkfuAN2Ka05xfTQLQWYUojdBvvzC1UynsjDtzIyBw1Sgpsw74JB0LXE2sLldKjKm7DKhgkSUmBH5IkcUlNWa4TPpIiZQXWQsIInWY23hR74Ka+p8Ob80MqsSnRm4tlHFo8u+ML3ca75hAzd3gnGidE+CUyUiCON2AUiQaUmEQUK+qE0PWEw7sHBWaNaeG49AUwDudLICRsabGet/F2Ywud1bBl7PsGwmeRwZvLAvZNOKye3Y23G03oJPxn9SCJJnQSfinZMk2VjII3ZxiSUIJjOrcipkdHWKEfpU+zjp6MgjeXBXhzgTActmyoi8ZjCp1liyDm4YtnER/W3DCF9YNdSODp/NYz5eMI3cY786nyUcJphF/igzcXjOuIPwtDJewZZd5bjuXRUTvXDzZsfFjzMHyJ8UPkTpvzJRDSK9J8G8LgQicLZT2sENyjo6QgPnhzWXBIJ5ug5HD3uRfDo8shCSWGRYNnER/W3D4koYQliyRChE4B4s0xFiYieHP2KbhNXhQyyK24JajQyaQCDpP14FlERCYUsOb24RmGJRsnJbRHR1hhDXhzSTjEALONeHM8w0BIbkUuOQM/BxO6zBYqJIR2I8K8uWzAmwtLTuu7E9Kjy+pFbEeye/2ebzh0E3DCvY5t8ObCIp1QsirZCCJ0OS5UoH6Xxxy68dg6IEwckX8D/ii8ubBkV7IRyqOjtmUNcjf3h+oPmR+npS+AdfDmopBdlMm70Ik3RzhuPVilEdk6aNqrcWdsH/ZNQHIqKegSwqMrvfv+Wsi0TALenHE23pAtG4EsDYkQQofFtR7WKCJbB816c0DG5ZvPnyaJW+yb5YzuLSreXJb7xKvQ5bxQvpAJBXhzkZAEFELp8fEqdNz7r+bqZfXdw7fJ1pDw7dFhca2HNVqN72w9ygmMI6F+jJWA5O6keBM6vLn1bLxp7i9JiIiEJKAUPZAzEyjDCU/WBrhPjw5PZT0n2j9gZpCAkg4v8+hkcjah/oCU4KR4EbqNd/lf9l+9GBdS23hDQkRMSEBJy9f3Xu6MKozDXoyd5p69kzJa6KibWw+tvpwYfUBKAsqruB8bfCPF4YT61zPYe954V0bJhg+Pjmyo9ZAQ0ZOrl15CXoQs03Ix9qdTThAecVJKWON/RwmdNDrGcl4B5QRx2TpoDC+8gLT4SnUn9ByWYpyUsR4d8fP1sEaRkJAlXoBxJAGFPrD9ca5ZLM1JGSx0G++KSt0edNkrCSjb/j9OtlyO/MVOCRGrYGwtJMahG0OK84ta4zEeXUkL5XxvRJHrIAZ30yBkmQfSz5Ln6IaTYVGYk9IwSOgkU6ckT+V8wN/Bu4gEIUt1DDJYxDjkObrx+eqlswddWrKWezJKQZk6LRdXL9y8V6zSwQz16DAqdDH0OZKd7EZ9pfLc5W+UUPO8iCEeXWmHituLRFr0GJwPSEKWKnHOupT2eLRrc+Pk6mX/PVNylryT0G28K+5lfH31wvl+Du8iElsHTXYeRoUyvr532zNiHFL76MbF1Uvnd7/UNf7SW+gkZFlSAkodsnR6kaSTA1bpcIbcNWBU6GJIhjLP0R2nRDfJqygy8nH1ovru4tGVFNt1j33fXKSTFj2O3iEv6WVJ6YY+XL05Qpbu/O2SgCIhy6IjH72ETtJRSyrgPCZkGZ3Xfdt/yfgdOvLopLexIsYhIUs3LgeIVslJPp+rPkInIcuSXsbPZFlGp/d9w9ZB8z4OKfeA8LhGQjAO3XnuMk1cQpbFe8x9PLqTwkKWT1z+grQr+ivcR8oe1zXncNTL877jeaRrEMahG68JWTrTRIlWCp1kWZbUkPh5fXHZ94vJFvPC874p0lJKULx1qpS/v77v52mLcUjo2Y2hWZalG4XNeb5U6MQaKOkQ//vqhXNI7ISEiFHUl+q91lxKCfCcdXLR13MQ45DQsxtDC8PxmKU2d5VHV5I1UJcSuKXr3pQSMH5nOLWF2mvNuZdTzbVLyFLOFcbvuHHsMqdRkgfxmG9YLnSFWQNDSgl2KCUYheu93DmHo1oO+xaIS9IWoWc3Pl297H/WFJg8uI7Fd3QFWgPPXUoJOvdypce+x/DE4V6OEIxePnx93+9QJWlrEJeuRjge833anIt7Qif3ciWFiLiXi0/vzLGtg8brIwSjk4u+3Tm4lxvEtRiELqUEx3jM9/jc/mHeozvnXm45EnrhXm44nxzq5XYIwailOYQd7uUIPbtzyL3caG7fz1uh23jXHCqleCr1Rt1z+QuEXkZz0TcMI8knhIf1Uotcr9DzxpsmAkLo2Y0PVy/7G3kFRuL6cmsoNEK38a64DMI9x3q5RwMaDsMd144dHUoyuqzx59f3/faCZCaX1DrQB3U2cu97OUk+KSkS58Kd0InL+4+Jj+2H3wckn/AijeO5Qx/LE+4Z1FInn/TKACQzeRCXrpEmcgZWcht1+I/EMX/T+Tm9831As+bKdSQG3OO7y12DGBWEYXTiunec2ulB9c0x+aQN8XOXvYDuWf/Tjx8/NH02AAAArzhNGAcAALAGQgcAAFmD0AEAQNYgdAAAkDUIHQAAZM1/prOm3uVnHvNDZtPq3+lH1ic0s/2bAuSnb5vC/EdZ/7L58u3s6K5uafrRuR4M3Phe/Xez3jus22Lq87v9P9o6uu5Bvtf530eF96j7acH6tMLXHso7FJOP4rpd3/qgFLHr0r6PrLdu/pwrEF92ruzIc6TIeRx/z6bV4XR2b51/7qwve+Xm/L75lz51dNNZ85K2/5TSt+5iNu1nLU0/3r5UO4WtkQ8+z/bdrP+nb283dPcfDs60/HZ25NYmT6Il3X3DM+zP77P99YXi01lzNnXP71Icl8+z6d254lwwPp01h8yedD14krHF8GE2dZ4FdYuEbto1onP7cv6e7Y/vPCPi193QHJpx+X9nR/27eixi+rGYs8UHv8723bs8ifA9kQbrOe+RxuNt/zCqM4qIXrtouXkxf86mfnr1icf3XP5B9O7TyzJ1RUKg7aFJ78ywXJ4d+b9bnX68FTxEb47Z/l1YbigieodyLuW2vr/PpnfnircWYLJoxxlNQfh1Nh3UF3Ml4umVNi1iFb/M9vuNfBmKeHu5GmQa+HR2FLav5fTjraHI8xsQ7l/HdNas7XFGhvi989t7r8tcBG82HW8xrULCNIfyT6nW6vVsP25Gq3h6eNd+eX121G+g7ljkXq/0Achewv2LyEXw5s/vYE2dRfBOjVpg9y4yQ1K44Hm3TF14+hYvwRPOiShjkeuAnCJILgQJ93cRwTsxeiY9OL+DFYzPptU3+WG/yZwlS0TbtLP96vtsv9mw9cZ9Len2pZB0mO3ZUXV6dnT7jn4uaN194z3Ev4463D3bbw7jX+rQacpfPgHB943cb9Vn0t8aF2AND9YneGcUKdrbMbZg0Q/gjuDVa/Uh9s9PhIqp7bU3guAN5mJstuUYRPCeyLO7SLYK8bgMfafdMptW3yVz0Zqz8sDwitICbG7BLHgs0S3Ulo6latETdiXZOi9iTvBKODR9oOIZ1t11ZvuNkfhn5lGR+N7znbNixQCP79F1kQV7pPwQqQvFk1moLbJx23BmjlzUXqzG30sEr97YvxcWSh6CCq+8Zbbf3CvtZOyZJ1lvcVaeG9gTC8/v6E2dZcE0WwfaNu5xpt6dqnVeRH2HZ/ieIhaqvPLqLiqyJ95dbiTdN3J3t6f4PFq4PsmmF4h1oPFFVHcAS9Pjncwu3dULXXUjdt/Pjm7D7oQz73N9dqRP6FrEu/s1IyPxekg3FN9IfdqO0v2gS+iqmwU7EVdYDbNpda7p87RIssqTjKxUtQfkIjrhzFxDyUNQb6yIMORiJKpZbwkP7ikUO31CV925wlrETn1cX6zUp8bvjqJljvlGCqNLSBTqgwljpWMkWg9B67pW0Sd2S/MrghWMuzKdNS9i6tlK/3ZnGGlGOkQEbbsUkG+hC15DI23FgnSnMMRpdwadBaR/ptUZbqcaDUTpeaxhL3xZFpFTI3QAAAAhSB66BAAACAlCBwAAWYPQAQBA1iB0AACQNf/R/MtNZ00mz18RftSn2dRsBuM9ZHzJF63jNXxMRrbA07dNVmmuI2SCD1qNzfRjtLNmCB+k/60pprMmQzTGXLu157dqj04KymPUaKgsEh+CpB9rTXsvZjLA2VFzMOU6hcJECY4LUp9KW0K/xBLntetjIXQZY7GyEbrqZtOeKu3gkdU6ryNjscvyOYrXpLGtlcn1lprkGO//2vVRL3TSVy1kR4NPGqYV+EaaQWvzoLLzBNaRoa6QcegAAAfDSURBVNhdWisSd+SJsq5Daqd89OQw8HrW3VDWvo9WklGOAy5Wzl6Gpk17qaEhbSIOM2oInbWxIqF/TfdhpjsIiRNxHPBH9FofE0IXeLGyFTqxBLUkDRQVtuwiE7g1NsAdQvbPcbbf/I5a+mKaNywk1yJUb9h8hK4Kt1hZhi27yIgfDZu2uLBlFxE7bWGxIZTyHI8VNO7OKQoSwlHpfX5bq6M78fz9SvEyUm/aa7GSi0butvYMr8FnEezskWhI6hBmPtngN1NqfJ9BvdfHmtCderSIr2Xxs0fBpi1e5FpkUKmqGYwOFPUcFURDcjuffHp1Tue3KaETN9XXwy9x06YaPonQdTg7at5hi5mYJT7HkIlwq8gxeevc41o6vYsWW4D5Cl8W4c3NkaKQnLDlYqxlYuZeVrAQiYak2Df5FeXfOCq+zgInHTAndFIzMbY+7NLKgFWfSOp07EJyRG4Bctf13FBySrHPURowxL7jztUQ9+GoXEh9dW+sNnUe+xL4TmqxxEnkwxWhW4Lc14WsMfJJiRGQLjG9uku5asgOEaixRoPz+W1V6MYensVuWgnFxBJ6wpZrODtqnoX2HqCXIsrFIu9xrOeU+54Z8/tdD/n7JoVOYr1D7zeyr53rQSyvDpHrh/YQZtE1kB1iGYi5G+Jjfr/zIee35Xl0Qw/R0kMwMb264te6D5LkoTmEicFy59WFvqvLvlWehC+HGnaDzi3V8+jWMOgQnU3ZtEJwEcr1niEEdQjz6dvqZ6WfjT1zx/PARf+lhIjrO89Hjn/nu2sSSstPP378GPL3AAAATGA5dAkAALAWhA4AALIGoQMAgKxB6AAAIGssZ11W01mTpfZ/Pb7091ImFQxh+rHJjtz19O0+zPZVTWg2ydO3TVbaXwk/+/XZkc4sUA1MPzYZg//r8aP8WtoE/umsKal51eNLfx2abdli2qPrWTh4icitxWf6eMnt1XzicyTVECgpWIH0jfXVlPuiNJFz4PNYkasyCV2uOwwQufX4qndjw3pCmj6nNBrYN+tJ0ok/I/qcO14aKeQgdKsO1ms8jPWIOPnwHlhrv6Raz7q3JcX+6/EhdIN6NxbCZ19TZnJPRjmhr2Vvxm42NqxnxKtLMaCV59gDTwbiubTkg4d4a4uXs9DhzbkxNuR4yoYNQop3mH3Tn7H7xsqYpth48+aqzIUOb86NsS8Vh2MAZDxOzEnkFyVOEh/BmH3zWZJa4CFeDYBchQ5vzpGRSSQf2LBBiZkYwr5xY4zQsdaL8erNVRkLHd7cMIYOliRDLyyx1pd7VneGGniXDCVeivdwbo5Chzc3nCGb9jPjeMIiSSmfIvyoc/lZ0BOJZAxJSOFubjGffHtzVSZCNz/TCG9uOEOEDm8uDjGsf57lMFzD/njOyzkM8U1zELrNzr/jzY3DdcPW4RcOxziEPhipnRuOq2F9QoZyw/wA2w+zaZi7ftNCJ70uuxzizY3Cde0Iv0QiQvgSA3E4rgYia/2Q61DeXJWBR7fT+Xd6Wo7HZcNe481FJ6THxbOMwwe8uVu653fQKyfrQte9n6Nj/kgcNyBWaXxChS8/kIQyChcDhCjIHe35XTspQdclF4/Oe90FrIS70ARIIfdlgJ/Ms4wD9ab32ZY/BXdSTM+j6wgd3pw/fuvxnb4TfknGk6ryOydOuq/AcL703DesszCd3SaiBCknmOenHz9+hP4ZwZjOqvrDvw7t9gIAgD+msybxpD63d0JlWnYxG7oUi+CSsAsAgDn2JAElSijX8h1dvVDPKScAADDHzzEjcZaF7hsJKAAAtpjOmtyKYDVzizB9RwcAALAO61mX4JnpxyYUPFnwXf+c7XMfqoGnbxtr+K+RH+UX5s75YfqxuUb5nyXf7BdKCtKT8+BVGMYikbtE5FQxNk39AyIXBermlIDQQR8o39DF2MOTdl/hCdq7EdxA6OCW6ceFhchMKFDGSG/sM1MKvDPfhb9iQoEuEDrosrNgNeg6o5OhrcDwzsNDizxlIHTQZd6jY3q4XoZ4dcycC8O8gXiIN6cLhA66PNiwrE5W4M2FoWsgEupXCEIHXbpjj+qMMZrQ6sV5GvzZEQdwIHY735ZQv0IQOujSenRkjOmHafAKmH68ZxwS6lcKQgdd2vlQx9wxZAXeXDi64X68OaUgdNAg3R1qLigOzw68uXC0Qvea4nC9IHTQ0m5YQpZ5gTcXFsaFGYBel9CyJwko3DHkBd5cWOpElKeE+nWD0EHLzpKCcbAL3lxAJNz/abZfnWf7S2YCoUuoN+wOCShZgjcXlj1C/TZA6KDmO0Wu2YE3F55TElBswOBVAIM8fdvUbz1a8cm/MYoH4AaEDgAAsobQJQAAZA1CBwAAWYPQAQBA1lBHB2CQp28XTrX+cnZEiQjAPAgdgDGevm3mn/3Pgk/9y4CpBgDZQ+gSwB6LOti8ppwAYDEIHYA95uvnrmkqDLAchA7AHvNCd8jdHMByEDoAe3QTUS5o9QWwGoQOwB5dj46mwgBrQOgADCEZl5vyiT+dHTE/EGAdCB2ALdqw5TXeHEA/EDoAW7SlBSeUEwD0A6EDsMWezJpjqCpAT+iMAmCL3aqqfuOZAfQHjw7ACE/fVk+qqvpAAgqAGwgdgB12SEABcAehA7DDCR1QABypqur/A/HVs9ZxqoWmAAAAAElFTkSuQmCC;" parent="1" vertex="1">
          <mxGeometry x="52" y="289.13" width="22" height="17.37" as="geometry" />
        </mxCell>
        <mxCell id="YTg8mPBcqh7w8Qsox6Sf-6" value="" style="shape=image;imageAspect=0;aspect=fixed;verticalLabelPosition=bottom;verticalAlign=top;image=data:image/png,iVBORw0KGgoAAAANSUhEUgAAAboAAAFdCAYAAAB1tqi/AAAACXBIWXMAABYlAAAWJQFJUiTwAAAgAElEQVR4nO2dPVYdR7e/23e94V3r+J+RIWdk4BGARyDpDADJCaGMA1IJKVVgrFCJkQZwQCO41gxEpuyKjOyKEei/utkNzeF8dHXXx95Vz7OW12v5RXCo7qrf3rv2x08/fvyoAOAhWwfVz/V//Pq++s7yANjlv3h2ACs5bwUPAGyC0AEsQTy5b1VV/YvYAdgFoQNYzXFVVduIHYBdEDqAFXx933h0n0XsTlgrAHsgdADrOZWveLZ1cPvvAGAEsi4BerB10NzXTeQrP3x9Xz1n3QBsgEcH0I/zzlfh2QEYAqED6Mf8/Vwtdnh1AAYgdAnQk62DJjFlc+6rf//6Hu8OQDN4dAD9WZR1+c/WQfWENQTQC0IH0J/zJV95unVQ7bCOADpB6AB6IjV1nxZ89UQKyh+xlgD6QOgA3Fjm1U3oiwmgE4QOwI1lQle1rcJYTwBdIHQADkij50Xhy5ZtauwAdIHQAbizyqurpMbumHUF0AFCB+DOOqGreUVBOYAOEDoAR3qEL1tOKDsASA9CBzCMPl7dhDl2AOlB6ACG0UfoqlbsWGOAdCB0AANwCF9WZGICpAWhAxhOX6+uYtoBQDoQOoDhuIYk/yE5BSA+CB3AQKT35YXj3yY5BSAyCB3AOFzCl1XbE5M1B4gHQgcwjiGitbt1sHC2HQAEgAnjACPZOmgyMCcDvsvTr+/x7gBCg0cHMJ6hYnXKDDuA8CB0AOMZWhDOfR1ABBA6gPGM6XyyzX0dQFi4owPwwNZB9UUGrw6F+zqAQODRAfhhbD/LU+rrAMKA0AH4YazQcV8HEAiEDsAPPiYU1PV1hzwPAL9wRwfgCQ/3dC2/fn3ffC8A8AAeHYA/fM2d474OwCMIHYA/fAld7RUe81wA/IDQAfjDZ7jxj62Dao9nAzAe7ugAPLJ10Izu2fT0HS+rqtqRaeYAMBA8OgC/+ApfViKYhDABRoLQAfjFd7YkIUyAkSB0AH4JURZAFibACBA6AI98fe81dNlCCBNgBAgdgH8uAnxPQpgAA0HoAPwTqqsJIUyAASB0AP4JJXR1CJNemACOIHQA/gnZp/LV1kG1wzMD6A9Cp5CNN4SnLBMoIaULE8nnqPcM+waWgdDp5HjjDVa7cUIkpLQwzmeOq5dN95hTxA4WgdDppLbY/0XsTPMt8Ic/JjHlAV9k37AucA+ETiFXL5tD8gtiZ5rQ8+QmhDAfcCqTHxA7uAdCp5dTOcwQO5vEGJz6jNq6O8RA/ITYwTwInVKuXjZCd43YmSV06LIFr+4+p/Kn7c6/Q+EgdLo5l0834aLdFl/fR/HoarZJTLnj6mWzZy7lPzzeeIPYAUKnna61TjjGHiEzL7uQmHKf886fniF2gNAp5upl4xVcdj7htud5ZxCWWANTJzR9vsd8OLcWO7zegkHo9DO/abexUM0Q0yipmz4/Mr5eXpCklHlv+q+NN9Vzo78SjASh08/5gk9IOMYGsTy6Ft6JOxatxT8bb8hSLRGETjlLrNNKxA4LVTexElJadik3uGWZ6J+TwVweCJ0NlqWQ1xbqk9IXRzGxSgy64NXdtQT7tOD/mojYkbxTEAidDRaFL1tOsVB18vV9EqHb3DrA0xeW7ZtNMpjLAqEzwArrtMJCVc9lgg9IucENqwzEbYrtywGhs8OqTbtJ2YFaknh1DGhdayBWcs9NWUYBIHR2WCdklB3oJIXQ1Rzi1TWsMhBrXnHPnT8InRFWZF92IRNTH6mEboJX17BO6CruufMHobNFH4+NWiFoOSy9iFzCl+sMRHrJZg5CZ4s+1mlFcooqUt6d0hrshj4GItMOMgahM4SEL/tk8U1ITgHhWelencNeeExySp4gdPbo69XVySmkT6cn1R1dl6IP7wXN0VfxitB/fiB09nDx1P4goywtiYrG58Grc9s3hP4zA6EzhgyWdKG+ZC/9kAPu6lz2zcTx60E5CJ1NPjt8ajZtelJ0R5mndK/O9c56l/u6fEDobOIqXNzXpUVD+LIq2avrWWYwD/d1mYDQ2WRIRiX3dVC6VzckssF9XQYgdAaRLLLrAZ+cotg0xB7AuoqSu6UMMRAn1NfZB6Gzy9BNy31dfGIPYF3F81J7YF69HFxbWtfX0U7NMAidXYYenrts2qIpvQemSyJXl2Oyl+2C0NllTOcTNm3ZlDzZYKiBSDTEMAidUUaEYSo2bfHUz7/UxKQx+2abkgObIHS2GRqGqdi0UdF0R9dS6rMf2wP2FSN97IHQ2WbsAcqmjYOmrMuWza2D8mYXSj3d2AJ+sjCNgdDZxseEAjZtuZQ6pHfsviEaYgyEzjY+QmLbZGEWy+7WQZEevY99QzTEEAidYWQ+3ZDC8XnIwiyXEo0cX3emtNUzAkJnHx+blu4P5fKstFKDkRnLXahJNUJQodt4h2sfAZ+bttQ7m9Ip8bB2bfC8jGyjITmd36E9up833uEpBMZnZ/wTemEWSYkGjq99M8k4hHmYi9gFFbqrF423sYfYBcVnjdaEAZ1FUmKpgc998zjTcT51U4l/cxC7GHd0tbXzDLELg0wy8MkfzOAqEoRuHNlNBrl60Qjd9xzELobQtQJXix3eQhh83Te0kE3mka/vvd2jhmS3sFl1voVuM9O7zlOJ9JgWu+BCd/WisQg+yB9fbbwj4SEAvidYU1tXJsU8cynN8c1hhokpraPS9MfdeGfTa41VXtBtIPwPYuedEL0Uj0lM8YOhouzS9qXvSEh2iSlXLxqD4JP8cVM8O3PnQhShk1hvt7/cP5QeeCWEdUpiij+sHAyTwpJSQuybHBNTuo7KtseSpmjELBifHwuTRTaPEkJs2EoSU+iYUhYlje8JNVUitzvu87kOTNvWkgtjCt38wpiO+Soj5BgYsmXL4nFBSSmhDMTtnJovSJ7FvKNSJxeaEfRoQnf1ojmM58djmI35akJGj4Ril3KD4iglfBlK6KoMmy8sGtT8h5V8i9i9Lhct1jbp7F4YM4R1HTyfskDoxjPJKYtV8iwWNZA3kW8RW+iWhcGosdNNVqEYWMtmCeN7ApUYdDkswKurJCqnOtwdVeiWhC9b6hq7ki7CfRM6EwpDpCxKqakbO218FbmVGywTOvX5FinG9CxbrKppo0MmplY2KSIvilKMztBe3bOMMpdXGdOqr6C0Cd1ExI7kFHdCZl62UEReDnVNXQliFzKRqyWLaIhkX35a8SX1FZRKYzi60MlEg1VTsbdJaR9EjA2b1QV7RKxmrZYgdDEMxFK8upq/Nt7pe99TTRhft1iPtVoGiokhdFWGF+ywnOKmjwcklzvuVRG526/RFpVLJXR9Fusv7uv6E2BczzLw6soid68u9B1dSxZenfS+XNcjdNLzjI+GVo+uhc4pOsGrKweEzh+5eHV9zu9dTSVjSYROrII+ab2b3Nc5seru0yd4dW5YtuQfE770Ri53dX0dlVda7utSeXSVg2vLfV1/YoUvK7w6J6wfbjl7dTE9uioTr86lZldFVC6l0Lks1jH3deqYFDi/rFSyFboI3VHmMe/VSZlB31l+Ew1RuZRC5+J9qFgseACedj+se76EL/1SmleXPCqXTOgc7ulatumHuZbY1ukmPTB7sW3gM66DCRb+yOGuzrXl4HHKfpgpPbpqwGKpudxUSmyhq+iBWQw539OF7He5DOsGouvZnTQql1rohiRP0CJMF7VXRzPuJWQU8iMhxS+mk7nkns7VQNhNFcK05tFVUnKAF6EL7uqWk0sSVd37kmiKP3JI5hpyficJYSYVOhnbM4Q/yMJURT2FnOeRP3jufrFuIA45v5OEMFN7dNWIydhkYeoCr24xORkACJ1frIf9hzoq0UOYGoRu6GKRhamLZxSQLySnNaknj+fShV8LZg1EmUQzlOOYuRYahG7MRfCh9hHukQk9ZXwdeHUPye39xKvzy67xUoO+hePzRA1hWvboKgrJ1UFN3UNyEzoSUvxjOTI1xlF5HKtcLLnQjXR/K4n3YmXqgFKDh+QWzn2s4DPkxhPDYf+x/XWjOCoaPLrKQ8HmCbV1asCru08OXVHuQZmBdyaGQ8JjhW4zRq6FFqEbW7C5yf2QGh5nMopkNBn3h8Rr94/V88tHsX3wXAstQudjvAyJKXrAq7sh19pCPDr/bFusRR1RC91lEvqeUovQfffwPYIvFvQGobshV8Nrm2kGQbDq1fnoFfosZGKKFqHzlRYfdLGgNySl3JBzhIF95h+re8ZXr9BgjkpOHl1LyV6dptAHQpdv6LJC6IIwMTr2ypfQBcugVyF0nuK8LSWXG2gKJ9EpJb/Sgi4IXRgsnl0+pz+cePxet2jx6HwTZLHAmdK9ul0FnyEU3NOFwWLWsk+hq8sNvHu1moRuaHPnRQRZLHCm2JKPQnpC4tWFwZqB6Huen/frp1w9uooMTBVsF1xTh9DBUKwZ6T5zLKoQReSahM7nPV2FV6eGUsOXJYhALr+jNqPElIHoOcei5dBntytNQufbKqgK9Oo0bo5SjY0SPLpc2pttKvgM85Te6Wnicw1yDl1WBXp1Gg/XUsOXRUxcp+9lMKxFQnwUjc/jzavLOXTZwl1dekoMX2bXzHkJCF0YNo21BPOdkFKJV+fFUck9dFlxV6eCotZ/66AMb04w/bsqjzZwbnkKX+YeumwpxavTeuiUFr4sSeise3Sa38vS61ArX45KKUK3WUi3lImCz7CMkjZtSUI3KaRmMAWbhgzEEKHLltGOSgl3dC2lZzGlpqQwTElCVxn/fbV3d7FiIIYUutGOihqhu3oR7I6uZTfnyQYGLq63C+p9mXPrr0VYFjrtn517uhtGOSqlhC5bcn5pLIhI9uHLwhJRWsi8DEdJBuIqakdl8N4qTeieZTyFHKHTQYlCh0cXFpJSbhjs1ZUmdFXGXp2FDUtbrDyxnJCCgWiHZ0MLyEsUOpJS0lEPlsxdCEr06CrDv7cFgSY0fMeg87tEoZtkWkBuZTNka53KfLZSOqLMY1XoNPa5nKcEA7Evg87uEoWuIpMpKTlv2JIPI3NCZ6yJAUJ3w6BSg1KFbjfDpBQrKe05Z5GVfBhZ3E+WPjP3dHc4OyqlCl3FXV1Sct20pd7PVUZDtpaEjjKDOx67OiolC102h63B+H2unk9pheL3MDiyx5oXSvjyDqfzu2Shy6n/pTVLL7sNy1y2BmvvoTUPnHfsDqeIXMlCV2Xk1VnbsJaa1faFOxR77yEGol02XTqllC50gwsQlWHxbii3TcshZO89tBZq5p7uPr2TUtQIXcIsyBwscYveUTbCUHj9XBcz76HhiAIG1R32hC7hJslB6CwesjllKHL43GDpPbQqdFr3TYr1nPTNsyg9dFlJqqrZcICB8TzLyCkMw/2cYKjnpVXjROvnVu2oIHQ3WD6oLCd15OIJ4dHdYeV9tGogFl3CsgBzQpdyg1gWOkakJETmz1nolxgLK8/UrIFI38t79ApfInQ3WA5fWn7pc9iwHDr3sbKPLCcPaTQmUn4mU0KXGqteHR5dWrifu4/6Z5qBR6RxjScJf/ba54lHd4e5l19SpFO+YGOZWC4cl7IC7kzuY8Gjs25gldxTdRFri8cRujssWuY5vPCWfwe8uYdYeJ7W942qsOvGOxVOwsqaOkKXd0yUPDAXELq0IHQPsRBhML9vSEh5wMr10CR0GkJA1g4ukjnSwmGzAMlEVYnUbubQxUbTGmu4fthe1V0Lj+4+1g6uHO6HTFrXWweNUWT5fjQkmu/pcrnfQugesvT8ViF0ikKGK60CTRjuiDKP1YQUwpbL0fw8c/HCNa0xQmcQKxshp7AZQpcXCF14NEVztDzvpXtSi9BpevkQuviY+l0IW5omm3IQRVEdLZ9jsqzMQIvQaYrpI3TxsebR4c2tRuW7mWGmopZ9o8noW/iMtQidpvumTe33dGLJ5eRRIHQQg9yELvm5qbAkC6FzQPuGyG3DmgknbR00hamELVejNesSj84/2p61TqGTZsraDg6ELjKGZtPhza1HXZ2avF+5tWvTIHTanJSF93QaPDo6cbvzWPnnG4L6cgnpbZnj2pdAjsX9GoRb47oidD3Z1jq2J+PWPxbu6fDmeiJGgSay3DcKIiEa9+2DZ43QLUfr58r1sLUgdIcKPoMVtO2fXPdNsnUWZ0Dj0GE8Oge0WoBs2ARsHTRCnEOPxOKQzju5ToFP6dFp3bMPInIahE7r4aFO6NiwScGbs0vOIeeUYqM5HHxvXZIKnfKxOBqtFTZsOlbOu4IHaApF57xvUq6z5j17T1tSe3SaF2qiMCEl5w2rtjaNll+DUCF0mZYVdEHoFqPHozOQCaXmQRawYTVPZMCbs0vumbJJjHHpHqX5GuWeAYBHtxpNQlxCaru6ezpJQqF2zi6575tUOQ7az+5765JM6AxYBBX3DNHRWGKAN2cUiYJgpIRBfV1iNwckpUdnoYBThdVS0IbVKHRkWw5Dw94posA/URMJC+f37XmC0K1GS+kDHTkSQAPnUWgIQ7NvAiBJehZqShG6vigZ2VPKhtUW9ydsaZTCwpaxjQpzMzuTCJ2R+7mWpEInReJs2MhsHTSbJOss18wpyZuLbSBaWdvb8ySVR2fpJUxtvRB+SQPenG14fuGw4tHdhldTCV2uHfhDUNKGVRG6lJKCZwo+CgxAoiAleePRIiHGonG3V0+phM5SKC6ZKEsBdUmNhLUkfuAN2Ka05xfTQLQWYUojdBvvzC1UynsjDtzIyBw1Sgpsw74JB0LXE2sLldKjKm7DKhgkSUmBH5IkcUlNWa4TPpIiZQXWQsIInWY23hR74Ka+p8Ob80MqsSnRm4tlHFo8u+ML3ca75hAzd3gnGidE+CUyUiCON2AUiQaUmEQUK+qE0PWEw7sHBWaNaeG49AUwDudLICRsabGet/F2Ywud1bBl7PsGwmeRwZvLAvZNOKye3Y23G03oJPxn9SCJJnQSfinZMk2VjII3ZxiSUIJjOrcipkdHWKEfpU+zjp6MgjeXBXhzgTActmyoi8ZjCp1liyDm4YtnER/W3DCF9YNdSODp/NYz5eMI3cY786nyUcJphF/igzcXjOuIPwtDJewZZd5bjuXRUTvXDzZsfFjzMHyJ8UPkTpvzJRDSK9J8G8LgQicLZT2sENyjo6QgPnhzWXBIJ5ug5HD3uRfDo8shCSWGRYNnER/W3D4koYQliyRChE4B4s0xFiYieHP2KbhNXhQyyK24JajQyaQCDpP14FlERCYUsOb24RmGJRsnJbRHR1hhDXhzSTjEALONeHM8w0BIbkUuOQM/BxO6zBYqJIR2I8K8uWzAmwtLTuu7E9Kjy+pFbEeye/2ebzh0E3DCvY5t8ObCIp1QsirZCCJ0OS5UoH6Xxxy68dg6IEwckX8D/ii8ubBkV7IRyqOjtmUNcjf3h+oPmR+npS+AdfDmopBdlMm70Ik3RzhuPVilEdk6aNqrcWdsH/ZNQHIqKegSwqMrvfv+Wsi0TALenHE23pAtG4EsDYkQQofFtR7WKCJbB816c0DG5ZvPnyaJW+yb5YzuLSreXJb7xKvQ5bxQvpAJBXhzkZAEFELp8fEqdNz7r+bqZfXdw7fJ1pDw7dFhca2HNVqN72w9ygmMI6F+jJWA5O6keBM6vLn1bLxp7i9JiIiEJKAUPZAzEyjDCU/WBrhPjw5PZT0n2j9gZpCAkg4v8+hkcjah/oCU4KR4EbqNd/lf9l+9GBdS23hDQkRMSEBJy9f3Xu6MKozDXoyd5p69kzJa6KibWw+tvpwYfUBKAsqruB8bfCPF4YT61zPYe954V0bJhg+Pjmyo9ZAQ0ZOrl15CXoQs03Ix9qdTThAecVJKWON/RwmdNDrGcl4B5QRx2TpoDC+8gLT4SnUn9ByWYpyUsR4d8fP1sEaRkJAlXoBxJAGFPrD9ca5ZLM1JGSx0G++KSt0edNkrCSjb/j9OtlyO/MVOCRGrYGwtJMahG0OK84ta4zEeXUkL5XxvRJHrIAZ30yBkmQfSz5Ln6IaTYVGYk9IwSOgkU6ckT+V8wN/Bu4gEIUt1DDJYxDjkObrx+eqlswddWrKWezJKQZk6LRdXL9y8V6zSwQz16DAqdDH0OZKd7EZ9pfLc5W+UUPO8iCEeXWmHituLRFr0GJwPSEKWKnHOupT2eLRrc+Pk6mX/PVNylryT0G28K+5lfH31wvl+Du8iElsHTXYeRoUyvr532zNiHFL76MbF1Uvnd7/UNf7SW+gkZFlSAkodsnR6kaSTA1bpcIbcNWBU6GJIhjLP0R2nRDfJqygy8nH1ovru4tGVFNt1j33fXKSTFj2O3iEv6WVJ6YY+XL05Qpbu/O2SgCIhy6IjH72ETtJRSyrgPCZkGZ3Xfdt/yfgdOvLopLexIsYhIUs3LgeIVslJPp+rPkInIcuSXsbPZFlGp/d9w9ZB8z4OKfeA8LhGQjAO3XnuMk1cQpbFe8x9PLqTwkKWT1z+grQr+ivcR8oe1zXncNTL877jeaRrEMahG68JWTrTRIlWCp1kWZbUkPh5fXHZ94vJFvPC874p0lJKULx1qpS/v77v52mLcUjo2Y2hWZalG4XNeb5U6MQaKOkQ//vqhXNI7ISEiFHUl+q91lxKCfCcdXLR13MQ45DQsxtDC8PxmKU2d5VHV5I1UJcSuKXr3pQSMH5nOLWF2mvNuZdTzbVLyFLOFcbvuHHsMqdRkgfxmG9YLnSFWQNDSgl2KCUYheu93DmHo1oO+xaIS9IWoWc3Pl297H/WFJg8uI7Fd3QFWgPPXUoJOvdypce+x/DE4V6OEIxePnx93+9QJWlrEJeuRjge833anIt7Qif3ciWFiLiXi0/vzLGtg8brIwSjk4u+3Tm4lxvEtRiELqUEx3jM9/jc/mHeozvnXm45EnrhXm44nxzq5XYIwailOYQd7uUIPbtzyL3caG7fz1uh23jXHCqleCr1Rt1z+QuEXkZz0TcMI8knhIf1Uotcr9DzxpsmAkLo2Y0PVy/7G3kFRuL6cmsoNEK38a64DMI9x3q5RwMaDsMd144dHUoyuqzx59f3/faCZCaX1DrQB3U2cu97OUk+KSkS58Kd0InL+4+Jj+2H3wckn/AijeO5Qx/LE+4Z1FInn/TKACQzeRCXrpEmcgZWcht1+I/EMX/T+Tm9831As+bKdSQG3OO7y12DGBWEYXTiunec2ulB9c0x+aQN8XOXvYDuWf/Tjx8/NH02AAAArzhNGAcAALAGQgcAAFmD0AEAQNYgdAAAkDUIHQAAZM1/prOm3uVnHvNDZtPq3+lH1ic0s/2bAuSnb5vC/EdZ/7L58u3s6K5uafrRuR4M3Phe/Xez3jus22Lq87v9P9o6uu5Bvtf530eF96j7acH6tMLXHso7FJOP4rpd3/qgFLHr0r6PrLdu/pwrEF92ruzIc6TIeRx/z6bV4XR2b51/7qwve+Xm/L75lz51dNNZ85K2/5TSt+5iNu1nLU0/3r5UO4WtkQ8+z/bdrP+nb283dPcfDs60/HZ25NYmT6Il3X3DM+zP77P99YXi01lzNnXP71Icl8+z6d254lwwPp01h8yedD14krHF8GE2dZ4FdYuEbto1onP7cv6e7Y/vPCPi193QHJpx+X9nR/27eixi+rGYs8UHv8723bs8ifA9kQbrOe+RxuNt/zCqM4qIXrtouXkxf86mfnr1icf3XP5B9O7TyzJ1RUKg7aFJ78ywXJ4d+b9bnX68FTxEb47Z/l1YbigieodyLuW2vr/PpnfnircWYLJoxxlNQfh1Nh3UF3Ml4umVNi1iFb/M9vuNfBmKeHu5GmQa+HR2FLav5fTjraHI8xsQ7l/HdNas7XFGhvi989t7r8tcBG82HW8xrULCNIfyT6nW6vVsP25Gq3h6eNd+eX121G+g7ljkXq/0Achewv2LyEXw5s/vYE2dRfBOjVpg9y4yQ1K44Hm3TF14+hYvwRPOiShjkeuAnCJILgQJ93cRwTsxeiY9OL+DFYzPptU3+WG/yZwlS0TbtLP96vtsv9mw9cZ9Len2pZB0mO3ZUXV6dnT7jn4uaN194z3Ev4463D3bbw7jX+rQacpfPgHB943cb9Vn0t8aF2AND9YneGcUKdrbMbZg0Q/gjuDVa/Uh9s9PhIqp7bU3guAN5mJstuUYRPCeyLO7SLYK8bgMfafdMptW3yVz0Zqz8sDwitICbG7BLHgs0S3Ulo6latETdiXZOi9iTvBKODR9oOIZ1t11ZvuNkfhn5lGR+N7znbNixQCP79F1kQV7pPwQqQvFk1moLbJx23BmjlzUXqzG30sEr97YvxcWSh6CCq+8Zbbf3CvtZOyZJ1lvcVaeG9gTC8/v6E2dZcE0WwfaNu5xpt6dqnVeRH2HZ/ieIhaqvPLqLiqyJ95dbiTdN3J3t6f4PFq4PsmmF4h1oPFFVHcAS9Pjncwu3dULXXUjdt/Pjm7D7oQz73N9dqRP6FrEu/s1IyPxekg3FN9IfdqO0v2gS+iqmwU7EVdYDbNpda7p87RIssqTjKxUtQfkIjrhzFxDyUNQb6yIMORiJKpZbwkP7ikUO31CV925wlrETn1cX6zUp8bvjqJljvlGCqNLSBTqgwljpWMkWg9B67pW0Sd2S/MrghWMuzKdNS9i6tlK/3ZnGGlGOkQEbbsUkG+hC15DI23FgnSnMMRpdwadBaR/ptUZbqcaDUTpeaxhL3xZFpFTI3QAAAAhSB66BAAACAlCBwAAWYPQAQBA1iB0AACQNf/R/MtNZ00mz18RftSn2dRsBuM9ZHzJF63jNXxMRrbA07dNVmmuI2SCD1qNzfRjtLNmCB+k/60pprMmQzTGXLu157dqj04KymPUaKgsEh+CpB9rTXsvZjLA2VFzMOU6hcJECY4LUp9KW0K/xBLntetjIXQZY7GyEbrqZtOeKu3gkdU6ryNjscvyOYrXpLGtlcn1lprkGO//2vVRL3TSVy1kR4NPGqYV+EaaQWvzoLLzBNaRoa6QcegAAAfDSURBVNhdWisSd+SJsq5Daqd89OQw8HrW3VDWvo9WklGOAy5Wzl6Gpk17qaEhbSIOM2oInbWxIqF/TfdhpjsIiRNxHPBH9FofE0IXeLGyFTqxBLUkDRQVtuwiE7g1NsAdQvbPcbbf/I5a+mKaNywk1yJUb9h8hK4Kt1hZhi27yIgfDZu2uLBlFxE7bWGxIZTyHI8VNO7OKQoSwlHpfX5bq6M78fz9SvEyUm/aa7GSi0butvYMr8FnEezskWhI6hBmPtngN1NqfJ9BvdfHmtCderSIr2Xxs0fBpi1e5FpkUKmqGYwOFPUcFURDcjuffHp1Tue3KaETN9XXwy9x06YaPonQdTg7at5hi5mYJT7HkIlwq8gxeevc41o6vYsWW4D5Cl8W4c3NkaKQnLDlYqxlYuZeVrAQiYak2Df5FeXfOCq+zgInHTAndFIzMbY+7NLKgFWfSOp07EJyRG4Bctf13FBySrHPURowxL7jztUQ9+GoXEh9dW+sNnUe+xL4TmqxxEnkwxWhW4Lc14WsMfJJiRGQLjG9uku5asgOEaixRoPz+W1V6MYensVuWgnFxBJ6wpZrODtqnoX2HqCXIsrFIu9xrOeU+54Z8/tdD/n7JoVOYr1D7zeyr53rQSyvDpHrh/YQZtE1kB1iGYi5G+Jjfr/zIee35Xl0Qw/R0kMwMb264te6D5LkoTmEicFy59WFvqvLvlWehC+HGnaDzi3V8+jWMOgQnU3ZtEJwEcr1niEEdQjz6dvqZ6WfjT1zx/PARf+lhIjrO89Hjn/nu2sSSstPP378GPL3AAAATGA5dAkAALAWhA4AALIGoQMAgKxB6AAAIGssZ11W01mTpfZ/Pb7091ImFQxh+rHJjtz19O0+zPZVTWg2ydO3TVbaXwk/+/XZkc4sUA1MPzYZg//r8aP8WtoE/umsKal51eNLfx2abdli2qPrWTh4icitxWf6eMnt1XzicyTVECgpWIH0jfXVlPuiNJFz4PNYkasyCV2uOwwQufX4qndjw3pCmj6nNBrYN+tJ0ok/I/qcO14aKeQgdKsO1ms8jPWIOPnwHlhrv6Raz7q3JcX+6/EhdIN6NxbCZ19TZnJPRjmhr2Vvxm42NqxnxKtLMaCV59gDTwbiubTkg4d4a4uXs9DhzbkxNuR4yoYNQop3mH3Tn7H7xsqYpth48+aqzIUOb86NsS8Vh2MAZDxOzEnkFyVOEh/BmH3zWZJa4CFeDYBchQ5vzpGRSSQf2LBBiZkYwr5xY4zQsdaL8erNVRkLHd7cMIYOliRDLyyx1pd7VneGGniXDCVeivdwbo5Chzc3nCGb9jPjeMIiSSmfIvyoc/lZ0BOJZAxJSOFubjGffHtzVSZCNz/TCG9uOEOEDm8uDjGsf57lMFzD/njOyzkM8U1zELrNzr/jzY3DdcPW4RcOxziEPhipnRuOq2F9QoZyw/wA2w+zaZi7ftNCJ70uuxzizY3Cde0Iv0QiQvgSA3E4rgYia/2Q61DeXJWBR7fT+Xd6Wo7HZcNe481FJ6THxbOMwwe8uVu653fQKyfrQte9n6Nj/kgcNyBWaXxChS8/kIQyChcDhCjIHe35XTspQdclF4/Oe90FrIS70ARIIfdlgJ/Ms4wD9ab32ZY/BXdSTM+j6wgd3pw/fuvxnb4TfknGk6ryOydOuq/AcL703DesszCd3SaiBCknmOenHz9+hP4ZwZjOqvrDvw7t9gIAgD+msybxpD63d0JlWnYxG7oUi+CSsAsAgDn2JAElSijX8h1dvVDPKScAADDHzzEjcZaF7hsJKAAAtpjOmtyKYDVzizB9RwcAALAO61mX4JnpxyYUPFnwXf+c7XMfqoGnbxtr+K+RH+UX5s75YfqxuUb5nyXf7BdKCtKT8+BVGMYikbtE5FQxNk39AyIXBermlIDQQR8o39DF2MOTdl/hCdq7EdxA6OCW6ceFhchMKFDGSG/sM1MKvDPfhb9iQoEuEDrosrNgNeg6o5OhrcDwzsNDizxlIHTQZd6jY3q4XoZ4dcycC8O8gXiIN6cLhA66PNiwrE5W4M2FoWsgEupXCEIHXbpjj+qMMZrQ6sV5GvzZEQdwIHY735ZQv0IQOujSenRkjOmHafAKmH68ZxwS6lcKQgdd2vlQx9wxZAXeXDi64X68OaUgdNAg3R1qLigOzw68uXC0Qvea4nC9IHTQ0m5YQpZ5gTcXFsaFGYBel9CyJwko3DHkBd5cWOpElKeE+nWD0EHLzpKCcbAL3lxAJNz/abZfnWf7S2YCoUuoN+wOCShZgjcXlj1C/TZA6KDmO0Wu2YE3F55TElBswOBVAIM8fdvUbz1a8cm/MYoH4AaEDgAAsobQJQAAZA1CBwAAWYPQAQBA1lBHB2CQp28XTrX+cnZEiQjAPAgdgDGevm3mn/3Pgk/9y4CpBgDZQ+gSwB6LOti8ppwAYDEIHYA95uvnrmkqDLAchA7AHvNCd8jdHMByEDoAe3QTUS5o9QWwGoQOwB5dj46mwgBrQOgADCEZl5vyiT+dHTE/EGAdCB2ALdqw5TXeHEA/EDoAW7SlBSeUEwD0A6EDsMWezJpjqCpAT+iMAmCL3aqqfuOZAfQHjw7ACE/fVk+qqvpAAgqAGwgdgB12SEABcAehA7DDCR1QABypqur/A/HVs9ZxqoWmAAAAAElFTkSuQmCC;" parent="1" vertex="1">
          <mxGeometry x="52" y="383.5" width="22" height="17.37" as="geometry" />
        </mxCell>
        <mxCell id="YTg8mPBcqh7w8Qsox6Sf-11" value="" style="sketch=0;outlineConnect=0;fontColor=#232F3E;gradientColor=none;fillColor=#232F3D;strokeColor=none;dashed=0;verticalLabelPosition=bottom;verticalAlign=top;align=center;html=1;fontSize=12;fontStyle=0;aspect=fixed;pointerEvents=1;shape=mxgraph.aws4.document;" parent="1" vertex="1">
          <mxGeometry x="731" y="258" width="13.89" height="19" as="geometry" />
        </mxCell>
        <mxCell id="YTg8mPBcqh7w8Qsox6Sf-13" value="" style="shape=image;imageAspect=0;aspect=fixed;verticalLabelPosition=bottom;verticalAlign=top;image=data:image/png,iVBORw0KGgoAAAANSUhEUgAAAboAAAFdCAYAAAB1tqi/AAAACXBIWXMAABYlAAAWJQFJUiTwAAAgAElEQVR4nO2dPVYdR7e/23e94V3r+J+RIWdk4BGARyDpDADJCaGMA1IJKVVgrFCJkQZwQCO41gxEpuyKjOyKEei/utkNzeF8dHXXx95Vz7OW12v5RXCo7qrf3rv2x08/fvyoAOAhWwfVz/V//Pq++s7yANjlv3h2ACs5bwUPAGyC0AEsQTy5b1VV/YvYAdgFoQNYzXFVVduIHYBdEDqAFXx933h0n0XsTlgrAHsgdADrOZWveLZ1cPvvAGAEsi4BerB10NzXTeQrP3x9Xz1n3QBsgEcH0I/zzlfh2QEYAqED6Mf8/Vwtdnh1AAYgdAnQk62DJjFlc+6rf//6Hu8OQDN4dAD9WZR1+c/WQfWENQTQC0IH0J/zJV95unVQ7bCOADpB6AB6IjV1nxZ89UQKyh+xlgD6QOgA3Fjm1U3oiwmgE4QOwI1lQle1rcJYTwBdIHQADkij50Xhy5ZtauwAdIHQAbizyqurpMbumHUF0AFCB+DOOqGreUVBOYAOEDoAR3qEL1tOKDsASA9CBzCMPl7dhDl2AOlB6ACG0UfoqlbsWGOAdCB0AANwCF9WZGICpAWhAxhOX6+uYtoBQDoQOoDhuIYk/yE5BSA+CB3AQKT35YXj3yY5BSAyCB3AOFzCl1XbE5M1B4gHQgcwjiGitbt1sHC2HQAEgAnjACPZOmgyMCcDvsvTr+/x7gBCg0cHMJ6hYnXKDDuA8CB0AOMZWhDOfR1ABBA6gPGM6XyyzX0dQFi4owPwwNZB9UUGrw6F+zqAQODRAfhhbD/LU+rrAMKA0AH4YazQcV8HEAiEDsAPPiYU1PV1hzwPAL9wRwfgCQ/3dC2/fn3ffC8A8AAeHYA/fM2d474OwCMIHYA/fAld7RUe81wA/IDQAfjDZ7jxj62Dao9nAzAe7ugAPLJ10Izu2fT0HS+rqtqRaeYAMBA8OgC/+ApfViKYhDABRoLQAfjFd7YkIUyAkSB0AH4JURZAFibACBA6AI98fe81dNlCCBNgBAgdgH8uAnxPQpgAA0HoAPwTqqsJIUyAASB0AP4JJXR1CJNemACOIHQA/gnZp/LV1kG1wzMD6A9Cp5CNN4SnLBMoIaULE8nnqPcM+waWgdDp5HjjDVa7cUIkpLQwzmeOq5dN95hTxA4WgdDppLbY/0XsTPMt8Ic/JjHlAV9k37AucA+ETiFXL5tD8gtiZ5rQ8+QmhDAfcCqTHxA7uAdCp5dTOcwQO5vEGJz6jNq6O8RA/ITYwTwInVKuXjZCd43YmSV06LIFr+4+p/Kn7c6/Q+EgdLo5l0834aLdFl/fR/HoarZJTLnj6mWzZy7lPzzeeIPYAUKnna61TjjGHiEzL7uQmHKf886fniF2gNAp5upl4xVcdj7htud5ZxCWWANTJzR9vsd8OLcWO7zegkHo9DO/abexUM0Q0yipmz4/Mr5eXpCklHlv+q+NN9Vzo78SjASh08/5gk9IOMYGsTy6Ft6JOxatxT8bb8hSLRGETjlLrNNKxA4LVTexElJadik3uGWZ6J+TwVweCJ0NlqWQ1xbqk9IXRzGxSgy64NXdtQT7tOD/mojYkbxTEAidDRaFL1tOsVB18vV9EqHb3DrA0xeW7ZtNMpjLAqEzwArrtMJCVc9lgg9IucENqwzEbYrtywGhs8OqTbtJ2YFaknh1DGhdayBWcs9NWUYBIHR2WCdklB3oJIXQ1Rzi1TWsMhBrXnHPnT8InRFWZF92IRNTH6mEboJX17BO6CruufMHobNFH4+NWiFoOSy9iFzCl+sMRHrJZg5CZ4s+1mlFcooqUt6d0hrshj4GItMOMgahM4SEL/tk8U1ITgHhWelencNeeExySp4gdPbo69XVySmkT6cn1R1dl6IP7wXN0VfxitB/fiB09nDx1P4goywtiYrG58Grc9s3hP4zA6EzhgyWdKG+ZC/9kAPu6lz2zcTx60E5CJ1NPjt8ajZtelJ0R5mndK/O9c56l/u6fEDobOIqXNzXpUVD+LIq2avrWWYwD/d1mYDQ2WRIRiX3dVC6VzckssF9XQYgdAaRLLLrAZ+cotg0xB7AuoqSu6UMMRAn1NfZB6Gzy9BNy31dfGIPYF3F81J7YF69HFxbWtfX0U7NMAidXYYenrts2qIpvQemSyJXl2Oyl+2C0NllTOcTNm3ZlDzZYKiBSDTEMAidUUaEYSo2bfHUz7/UxKQx+2abkgObIHS2GRqGqdi0UdF0R9dS6rMf2wP2FSN97IHQ2WbsAcqmjYOmrMuWza2D8mYXSj3d2AJ+sjCNgdDZxseEAjZtuZQ6pHfsviEaYgyEzjY+QmLbZGEWy+7WQZEevY99QzTEEAidYWQ+3ZDC8XnIwiyXEo0cX3emtNUzAkJnHx+blu4P5fKstFKDkRnLXahJNUJQodt4h2sfAZ+bttQ7m9Ip8bB2bfC8jGyjITmd36E9up833uEpBMZnZ/wTemEWSYkGjq99M8k4hHmYi9gFFbqrF423sYfYBcVnjdaEAZ1FUmKpgc998zjTcT51U4l/cxC7GHd0tbXzDLELg0wy8MkfzOAqEoRuHNlNBrl60Qjd9xzELobQtQJXix3eQhh83Te0kE3mka/vvd2jhmS3sFl1voVuM9O7zlOJ9JgWu+BCd/WisQg+yB9fbbwj4SEAvidYU1tXJsU8cynN8c1hhokpraPS9MfdeGfTa41VXtBtIPwPYuedEL0Uj0lM8YOhouzS9qXvSEh2iSlXLxqD4JP8cVM8O3PnQhShk1hvt7/cP5QeeCWEdUpiij+sHAyTwpJSQuybHBNTuo7KtseSpmjELBifHwuTRTaPEkJs2EoSU+iYUhYlje8JNVUitzvu87kOTNvWkgtjCt38wpiO+Soj5BgYsmXL4nFBSSmhDMTtnJovSJ7FvKNSJxeaEfRoQnf1ojmM58djmI35akJGj4Ril3KD4iglfBlK6KoMmy8sGtT8h5V8i9i9Lhct1jbp7F4YM4R1HTyfskDoxjPJKYtV8iwWNZA3kW8RW+iWhcGosdNNVqEYWMtmCeN7ApUYdDkswKurJCqnOtwdVeiWhC9b6hq7ki7CfRM6EwpDpCxKqakbO218FbmVGywTOvX5FinG9CxbrKppo0MmplY2KSIvilKMztBe3bOMMpdXGdOqr6C0Cd1ExI7kFHdCZl62UEReDnVNXQliFzKRqyWLaIhkX35a8SX1FZRKYzi60MlEg1VTsbdJaR9EjA2b1QV7RKxmrZYgdDEMxFK8upq/Nt7pe99TTRhft1iPtVoGiokhdFWGF+ywnOKmjwcklzvuVRG526/RFpVLJXR9Fusv7uv6E2BczzLw6soid68u9B1dSxZenfS+XNcjdNLzjI+GVo+uhc4pOsGrKweEzh+5eHV9zu9dTSVjSYROrII+ab2b3Nc5seru0yd4dW5YtuQfE770Ri53dX0dlVda7utSeXSVg2vLfV1/YoUvK7w6J6wfbjl7dTE9uioTr86lZldFVC6l0Lks1jH3deqYFDi/rFSyFboI3VHmMe/VSZlB31l+Ew1RuZRC5+J9qFgseACedj+se76EL/1SmleXPCqXTOgc7ulatumHuZbY1ukmPTB7sW3gM66DCRb+yOGuzrXl4HHKfpgpPbpqwGKpudxUSmyhq+iBWQw539OF7He5DOsGouvZnTQql1rohiRP0CJMF7VXRzPuJWQU8iMhxS+mk7nkns7VQNhNFcK05tFVUnKAF6EL7uqWk0sSVd37kmiKP3JI5hpyficJYSYVOhnbM4Q/yMJURT2FnOeRP3jufrFuIA45v5OEMFN7dNWIydhkYeoCr24xORkACJ1frIf9hzoq0UOYGoRu6GKRhamLZxSQLySnNaknj+fShV8LZg1EmUQzlOOYuRYahG7MRfCh9hHukQk9ZXwdeHUPye39xKvzy67xUoO+hePzRA1hWvboKgrJ1UFN3UNyEzoSUvxjOTI1xlF5HKtcLLnQjXR/K4n3YmXqgFKDh+QWzn2s4DPkxhPDYf+x/XWjOCoaPLrKQ8HmCbV1asCru08OXVHuQZmBdyaGQ8JjhW4zRq6FFqEbW7C5yf2QGh5nMopkNBn3h8Rr94/V88tHsX3wXAstQudjvAyJKXrAq7sh19pCPDr/bFusRR1RC91lEvqeUovQfffwPYIvFvQGobshV8Nrm2kGQbDq1fnoFfosZGKKFqHzlRYfdLGgNySl3JBzhIF95h+re8ZXr9BgjkpOHl1LyV6dptAHQpdv6LJC6IIwMTr2ypfQBcugVyF0nuK8LSWXG2gKJ9EpJb/Sgi4IXRgsnl0+pz+cePxet2jx6HwTZLHAmdK9ul0FnyEU3NOFwWLWsk+hq8sNvHu1moRuaHPnRQRZLHCm2JKPQnpC4tWFwZqB6Huen/frp1w9uooMTBVsF1xTh9DBUKwZ6T5zLKoQReSahM7nPV2FV6eGUsOXJYhALr+jNqPElIHoOcei5dBntytNQufbKqgK9Oo0bo5SjY0SPLpc2pttKvgM85Te6Wnicw1yDl1WBXp1Gg/XUsOXRUxcp+9lMKxFQnwUjc/jzavLOXTZwl1dekoMX2bXzHkJCF0YNo21BPOdkFKJV+fFUck9dFlxV6eCotZ/66AMb04w/bsqjzZwbnkKX+YeumwpxavTeuiUFr4sSeise3Sa38vS61ArX45KKUK3WUi3lImCz7CMkjZtSUI3KaRmMAWbhgzEEKHLltGOSgl3dC2lZzGlpqQwTElCVxn/fbV3d7FiIIYUutGOihqhu3oR7I6uZTfnyQYGLq63C+p9mXPrr0VYFjrtn517uhtGOSqlhC5bcn5pLIhI9uHLwhJRWsi8DEdJBuIqakdl8N4qTeieZTyFHKHTQYlCh0cXFpJSbhjs1ZUmdFXGXp2FDUtbrDyxnJCCgWiHZ0MLyEsUOpJS0lEPlsxdCEr06CrDv7cFgSY0fMeg87tEoZtkWkBuZTNka53KfLZSOqLMY1XoNPa5nKcEA7Evg87uEoWuIpMpKTlv2JIPI3NCZ6yJAUJ3w6BSg1KFbjfDpBQrKe05Z5GVfBhZ3E+WPjP3dHc4OyqlCl3FXV1Sct20pd7PVUZDtpaEjjKDOx67OiolC102h63B+H2unk9pheL3MDiyx5oXSvjyDqfzu2Shy6n/pTVLL7sNy1y2BmvvoTUPnHfsDqeIXMlCV2Xk1VnbsJaa1faFOxR77yEGol02XTqllC50gwsQlWHxbii3TcshZO89tBZq5p7uPr2TUtQIXcIsyBwscYveUTbCUHj9XBcz76HhiAIG1R32hC7hJslB6CwesjllKHL43GDpPbQqdFr3TYr1nPTNsyg9dFlJqqrZcICB8TzLyCkMw/2cYKjnpVXjROvnVu2oIHQ3WD6oLCd15OIJ4dHdYeV9tGogFl3CsgBzQpdyg1gWOkakJETmz1nolxgLK8/UrIFI38t79ApfInQ3WA5fWn7pc9iwHDr3sbKPLCcPaTQmUn4mU0KXGqteHR5dWrifu4/6Z5qBR6RxjScJf/ba54lHd4e5l19SpFO+YGOZWC4cl7IC7kzuY8Gjs25gldxTdRFri8cRujssWuY5vPCWfwe8uYdYeJ7W942qsOvGOxVOwsqaOkKXd0yUPDAXELq0IHQPsRBhML9vSEh5wMr10CR0GkJA1g4ukjnSwmGzAMlEVYnUbubQxUbTGmu4fthe1V0Lj+4+1g6uHO6HTFrXWweNUWT5fjQkmu/pcrnfQugesvT8ViF0ikKGK60CTRjuiDKP1YQUwpbL0fw8c/HCNa0xQmcQKxshp7AZQpcXCF14NEVztDzvpXtSi9BpevkQuviY+l0IW5omm3IQRVEdLZ9jsqzMQIvQaYrpI3TxsebR4c2tRuW7mWGmopZ9o8noW/iMtQidpvumTe33dGLJ5eRRIHQQg9yELvm5qbAkC6FzQPuGyG3DmgknbR00hamELVejNesSj84/2p61TqGTZsraDg6ELjKGZtPhza1HXZ2avF+5tWvTIHTanJSF93QaPDo6cbvzWPnnG4L6cgnpbZnj2pdAjsX9GoRb47oidD3Z1jq2J+PWPxbu6fDmeiJGgSay3DcKIiEa9+2DZ43QLUfr58r1sLUgdIcKPoMVtO2fXPdNsnUWZ0Dj0GE8Oge0WoBs2ARsHTRCnEOPxOKQzju5ToFP6dFp3bMPInIahE7r4aFO6NiwScGbs0vOIeeUYqM5HHxvXZIKnfKxOBqtFTZsOlbOu4IHaApF57xvUq6z5j17T1tSe3SaF2qiMCEl5w2rtjaNll+DUCF0mZYVdEHoFqPHozOQCaXmQRawYTVPZMCbs0vumbJJjHHpHqX5GuWeAYBHtxpNQlxCaru6ezpJQqF2zi6575tUOQ7az+5765JM6AxYBBX3DNHRWGKAN2cUiYJgpIRBfV1iNwckpUdnoYBThdVS0IbVKHRkWw5Dw94posA/URMJC+f37XmC0K1GS+kDHTkSQAPnUWgIQ7NvAiBJehZqShG6vigZ2VPKhtUW9ydsaZTCwpaxjQpzMzuTCJ2R+7mWpEInReJs2MhsHTSbJOss18wpyZuLbSBaWdvb8ySVR2fpJUxtvRB+SQPenG14fuGw4tHdhldTCV2uHfhDUNKGVRG6lJKCZwo+CgxAoiAleePRIiHGonG3V0+phM5SKC6ZKEsBdUmNhLUkfuAN2Ka05xfTQLQWYUojdBvvzC1UynsjDtzIyBw1Sgpsw74JB0LXE2sLldKjKm7DKhgkSUmBH5IkcUlNWa4TPpIiZQXWQsIInWY23hR74Ka+p8Ob80MqsSnRm4tlHFo8u+ML3ca75hAzd3gnGidE+CUyUiCON2AUiQaUmEQUK+qE0PWEw7sHBWaNaeG49AUwDudLICRsabGet/F2Ywud1bBl7PsGwmeRwZvLAvZNOKye3Y23G03oJPxn9SCJJnQSfinZMk2VjII3ZxiSUIJjOrcipkdHWKEfpU+zjp6MgjeXBXhzgTActmyoi8ZjCp1liyDm4YtnER/W3DCF9YNdSODp/NYz5eMI3cY786nyUcJphF/igzcXjOuIPwtDJewZZd5bjuXRUTvXDzZsfFjzMHyJ8UPkTpvzJRDSK9J8G8LgQicLZT2sENyjo6QgPnhzWXBIJ5ug5HD3uRfDo8shCSWGRYNnER/W3D4koYQliyRChE4B4s0xFiYieHP2KbhNXhQyyK24JajQyaQCDpP14FlERCYUsOb24RmGJRsnJbRHR1hhDXhzSTjEALONeHM8w0BIbkUuOQM/BxO6zBYqJIR2I8K8uWzAmwtLTuu7E9Kjy+pFbEeye/2ebzh0E3DCvY5t8ObCIp1QsirZCCJ0OS5UoH6Xxxy68dg6IEwckX8D/ii8ubBkV7IRyqOjtmUNcjf3h+oPmR+npS+AdfDmopBdlMm70Ik3RzhuPVilEdk6aNqrcWdsH/ZNQHIqKegSwqMrvfv+Wsi0TALenHE23pAtG4EsDYkQQofFtR7WKCJbB816c0DG5ZvPnyaJW+yb5YzuLSreXJb7xKvQ5bxQvpAJBXhzkZAEFELp8fEqdNz7r+bqZfXdw7fJ1pDw7dFhca2HNVqN72w9ygmMI6F+jJWA5O6keBM6vLn1bLxp7i9JiIiEJKAUPZAzEyjDCU/WBrhPjw5PZT0n2j9gZpCAkg4v8+hkcjah/oCU4KR4EbqNd/lf9l+9GBdS23hDQkRMSEBJy9f3Xu6MKozDXoyd5p69kzJa6KibWw+tvpwYfUBKAsqruB8bfCPF4YT61zPYe954V0bJhg+Pjmyo9ZAQ0ZOrl15CXoQs03Ix9qdTThAecVJKWON/RwmdNDrGcl4B5QRx2TpoDC+8gLT4SnUn9ByWYpyUsR4d8fP1sEaRkJAlXoBxJAGFPrD9ca5ZLM1JGSx0G++KSt0edNkrCSjb/j9OtlyO/MVOCRGrYGwtJMahG0OK84ta4zEeXUkL5XxvRJHrIAZ30yBkmQfSz5Ln6IaTYVGYk9IwSOgkU6ckT+V8wN/Bu4gEIUt1DDJYxDjkObrx+eqlswddWrKWezJKQZk6LRdXL9y8V6zSwQz16DAqdDH0OZKd7EZ9pfLc5W+UUPO8iCEeXWmHituLRFr0GJwPSEKWKnHOupT2eLRrc+Pk6mX/PVNylryT0G28K+5lfH31wvl+Du8iElsHTXYeRoUyvr532zNiHFL76MbF1Uvnd7/UNf7SW+gkZFlSAkodsnR6kaSTA1bpcIbcNWBU6GJIhjLP0R2nRDfJqygy8nH1ovru4tGVFNt1j33fXKSTFj2O3iEv6WVJ6YY+XL05Qpbu/O2SgCIhy6IjH72ETtJRSyrgPCZkGZ3Xfdt/yfgdOvLopLexIsYhIUs3LgeIVslJPp+rPkInIcuSXsbPZFlGp/d9w9ZB8z4OKfeA8LhGQjAO3XnuMk1cQpbFe8x9PLqTwkKWT1z+grQr+ivcR8oe1zXncNTL877jeaRrEMahG68JWTrTRIlWCp1kWZbUkPh5fXHZ94vJFvPC874p0lJKULx1qpS/v77v52mLcUjo2Y2hWZalG4XNeb5U6MQaKOkQ//vqhXNI7ISEiFHUl+q91lxKCfCcdXLR13MQ45DQsxtDC8PxmKU2d5VHV5I1UJcSuKXr3pQSMH5nOLWF2mvNuZdTzbVLyFLOFcbvuHHsMqdRkgfxmG9YLnSFWQNDSgl2KCUYheu93DmHo1oO+xaIS9IWoWc3Pl297H/WFJg8uI7Fd3QFWgPPXUoJOvdypce+x/DE4V6OEIxePnx93+9QJWlrEJeuRjge833anIt7Qif3ciWFiLiXi0/vzLGtg8brIwSjk4u+3Tm4lxvEtRiELqUEx3jM9/jc/mHeozvnXm45EnrhXm44nxzq5XYIwailOYQd7uUIPbtzyL3caG7fz1uh23jXHCqleCr1Rt1z+QuEXkZz0TcMI8knhIf1Uotcr9DzxpsmAkLo2Y0PVy/7G3kFRuL6cmsoNEK38a64DMI9x3q5RwMaDsMd144dHUoyuqzx59f3/faCZCaX1DrQB3U2cu97OUk+KSkS58Kd0InL+4+Jj+2H3wckn/AijeO5Qx/LE+4Z1FInn/TKACQzeRCXrpEmcgZWcht1+I/EMX/T+Tm9831As+bKdSQG3OO7y12DGBWEYXTiunec2ulB9c0x+aQN8XOXvYDuWf/Tjx8/NH02AAAArzhNGAcAALAGQgcAAFmD0AEAQNYgdAAAkDUIHQAAZM1/prOm3uVnHvNDZtPq3+lH1ic0s/2bAuSnb5vC/EdZ/7L58u3s6K5uafrRuR4M3Phe/Xez3jus22Lq87v9P9o6uu5Bvtf530eF96j7acH6tMLXHso7FJOP4rpd3/qgFLHr0r6PrLdu/pwrEF92ruzIc6TIeRx/z6bV4XR2b51/7qwve+Xm/L75lz51dNNZ85K2/5TSt+5iNu1nLU0/3r5UO4WtkQ8+z/bdrP+nb283dPcfDs60/HZ25NYmT6Il3X3DM+zP77P99YXi01lzNnXP71Icl8+z6d254lwwPp01h8yedD14krHF8GE2dZ4FdYuEbto1onP7cv6e7Y/vPCPi193QHJpx+X9nR/27eixi+rGYs8UHv8723bs8ifA9kQbrOe+RxuNt/zCqM4qIXrtouXkxf86mfnr1icf3XP5B9O7TyzJ1RUKg7aFJ78ywXJ4d+b9bnX68FTxEb47Z/l1YbigieodyLuW2vr/PpnfnircWYLJoxxlNQfh1Nh3UF3Ml4umVNi1iFb/M9vuNfBmKeHu5GmQa+HR2FLav5fTjraHI8xsQ7l/HdNas7XFGhvi989t7r8tcBG82HW8xrULCNIfyT6nW6vVsP25Gq3h6eNd+eX121G+g7ljkXq/0Achewv2LyEXw5s/vYE2dRfBOjVpg9y4yQ1K44Hm3TF14+hYvwRPOiShjkeuAnCJILgQJ93cRwTsxeiY9OL+DFYzPptU3+WG/yZwlS0TbtLP96vtsv9mw9cZ9Len2pZB0mO3ZUXV6dnT7jn4uaN194z3Ev4463D3bbw7jX+rQacpfPgHB943cb9Vn0t8aF2AND9YneGcUKdrbMbZg0Q/gjuDVa/Uh9s9PhIqp7bU3guAN5mJstuUYRPCeyLO7SLYK8bgMfafdMptW3yVz0Zqz8sDwitICbG7BLHgs0S3Ulo6latETdiXZOi9iTvBKODR9oOIZ1t11ZvuNkfhn5lGR+N7znbNixQCP79F1kQV7pPwQqQvFk1moLbJx23BmjlzUXqzG30sEr97YvxcWSh6CCq+8Zbbf3CvtZOyZJ1lvcVaeG9gTC8/v6E2dZcE0WwfaNu5xpt6dqnVeRH2HZ/ieIhaqvPLqLiqyJ95dbiTdN3J3t6f4PFq4PsmmF4h1oPFFVHcAS9Pjncwu3dULXXUjdt/Pjm7D7oQz73N9dqRP6FrEu/s1IyPxekg3FN9IfdqO0v2gS+iqmwU7EVdYDbNpda7p87RIssqTjKxUtQfkIjrhzFxDyUNQb6yIMORiJKpZbwkP7ikUO31CV925wlrETn1cX6zUp8bvjqJljvlGCqNLSBTqgwljpWMkWg9B67pW0Sd2S/MrghWMuzKdNS9i6tlK/3ZnGGlGOkQEbbsUkG+hC15DI23FgnSnMMRpdwadBaR/ptUZbqcaDUTpeaxhL3xZFpFTI3QAAAAhSB66BAAACAlCBwAAWYPQAQBA1iB0AACQNf/R/MtNZ00mz18RftSn2dRsBuM9ZHzJF63jNXxMRrbA07dNVmmuI2SCD1qNzfRjtLNmCB+k/60pprMmQzTGXLu157dqj04KymPUaKgsEh+CpB9rTXsvZjLA2VFzMOU6hcJECY4LUp9KW0K/xBLntetjIXQZY7GyEbrqZtOeKu3gkdU6ryNjscvyOYrXpLGtlcn1lprkGO//2vVRL3TSVy1kR4NPGqYV+EaaQWvzoLLzBNaRoa6QcegAAAfDSURBVNhdWisSd+SJsq5Daqd89OQw8HrW3VDWvo9WklGOAy5Wzl6Gpk17qaEhbSIOM2oInbWxIqF/TfdhpjsIiRNxHPBH9FofE0IXeLGyFTqxBLUkDRQVtuwiE7g1NsAdQvbPcbbf/I5a+mKaNywk1yJUb9h8hK4Kt1hZhi27yIgfDZu2uLBlFxE7bWGxIZTyHI8VNO7OKQoSwlHpfX5bq6M78fz9SvEyUm/aa7GSi0butvYMr8FnEezskWhI6hBmPtngN1NqfJ9BvdfHmtCderSIr2Xxs0fBpi1e5FpkUKmqGYwOFPUcFURDcjuffHp1Tue3KaETN9XXwy9x06YaPonQdTg7at5hi5mYJT7HkIlwq8gxeevc41o6vYsWW4D5Cl8W4c3NkaKQnLDlYqxlYuZeVrAQiYak2Df5FeXfOCq+zgInHTAndFIzMbY+7NLKgFWfSOp07EJyRG4Bctf13FBySrHPURowxL7jztUQ9+GoXEh9dW+sNnUe+xL4TmqxxEnkwxWhW4Lc14WsMfJJiRGQLjG9uku5asgOEaixRoPz+W1V6MYensVuWgnFxBJ6wpZrODtqnoX2HqCXIsrFIu9xrOeU+54Z8/tdD/n7JoVOYr1D7zeyr53rQSyvDpHrh/YQZtE1kB1iGYi5G+Jjfr/zIee35Xl0Qw/R0kMwMb264te6D5LkoTmEicFy59WFvqvLvlWehC+HGnaDzi3V8+jWMOgQnU3ZtEJwEcr1niEEdQjz6dvqZ6WfjT1zx/PARf+lhIjrO89Hjn/nu2sSSstPP378GPL3AAAATGA5dAkAALAWhA4AALIGoQMAgKxB6AAAIGssZ11W01mTpfZ/Pb7091ImFQxh+rHJjtz19O0+zPZVTWg2ydO3TVbaXwk/+/XZkc4sUA1MPzYZg//r8aP8WtoE/umsKal51eNLfx2abdli2qPrWTh4icitxWf6eMnt1XzicyTVECgpWIH0jfXVlPuiNJFz4PNYkasyCV2uOwwQufX4qndjw3pCmj6nNBrYN+tJ0ok/I/qcO14aKeQgdKsO1ms8jPWIOPnwHlhrv6Raz7q3JcX+6/EhdIN6NxbCZ19TZnJPRjmhr2Vvxm42NqxnxKtLMaCV59gDTwbiubTkg4d4a4uXs9DhzbkxNuR4yoYNQop3mH3Tn7H7xsqYpth48+aqzIUOb86NsS8Vh2MAZDxOzEnkFyVOEh/BmH3zWZJa4CFeDYBchQ5vzpGRSSQf2LBBiZkYwr5xY4zQsdaL8erNVRkLHd7cMIYOliRDLyyx1pd7VneGGniXDCVeivdwbo5Chzc3nCGb9jPjeMIiSSmfIvyoc/lZ0BOJZAxJSOFubjGffHtzVSZCNz/TCG9uOEOEDm8uDjGsf57lMFzD/njOyzkM8U1zELrNzr/jzY3DdcPW4RcOxziEPhipnRuOq2F9QoZyw/wA2w+zaZi7ftNCJ70uuxzizY3Cde0Iv0QiQvgSA3E4rgYia/2Q61DeXJWBR7fT+Xd6Wo7HZcNe481FJ6THxbOMwwe8uVu653fQKyfrQte9n6Nj/kgcNyBWaXxChS8/kIQyChcDhCjIHe35XTspQdclF4/Oe90FrIS70ARIIfdlgJ/Ms4wD9ab32ZY/BXdSTM+j6wgd3pw/fuvxnb4TfknGk6ryOydOuq/AcL703DesszCd3SaiBCknmOenHz9+hP4ZwZjOqvrDvw7t9gIAgD+msybxpD63d0JlWnYxG7oUi+CSsAsAgDn2JAElSijX8h1dvVDPKScAADDHzzEjcZaF7hsJKAAAtpjOmtyKYDVzizB9RwcAALAO61mX4JnpxyYUPFnwXf+c7XMfqoGnbxtr+K+RH+UX5s75YfqxuUb5nyXf7BdKCtKT8+BVGMYikbtE5FQxNk39AyIXBermlIDQQR8o39DF2MOTdl/hCdq7EdxA6OCW6ceFhchMKFDGSG/sM1MKvDPfhb9iQoEuEDrosrNgNeg6o5OhrcDwzsNDizxlIHTQZd6jY3q4XoZ4dcycC8O8gXiIN6cLhA66PNiwrE5W4M2FoWsgEupXCEIHXbpjj+qMMZrQ6sV5GvzZEQdwIHY735ZQv0IQOujSenRkjOmHafAKmH68ZxwS6lcKQgdd2vlQx9wxZAXeXDi64X68OaUgdNAg3R1qLigOzw68uXC0Qvea4nC9IHTQ0m5YQpZ5gTcXFsaFGYBel9CyJwko3DHkBd5cWOpElKeE+nWD0EHLzpKCcbAL3lxAJNz/abZfnWf7S2YCoUuoN+wOCShZgjcXlj1C/TZA6KDmO0Wu2YE3F55TElBswOBVAIM8fdvUbz1a8cm/MYoH4AaEDgAAsobQJQAAZA1CBwAAWYPQAQBA1lBHB2CQp28XTrX+cnZEiQjAPAgdgDGevm3mn/3Pgk/9y4CpBgDZQ+gSwB6LOti8ppwAYDEIHYA95uvnrmkqDLAchA7AHvNCd8jdHMByEDoAe3QTUS5o9QWwGoQOwB5dj46mwgBrQOgADCEZl5vyiT+dHTE/EGAdCB2ALdqw5TXeHEA/EDoAW7SlBSeUEwD0A6EDsMWezJpjqCpAT+iMAmCL3aqqfuOZAfQHjw7ACE/fVk+qqvpAAgqAGwgdgB12SEABcAehA7DDCR1QABypqur/A/HVs9ZxqoWmAAAAAElFTkSuQmCC;" parent="1" vertex="1">
          <mxGeometry x="733" y="420.51" width="22" height="17.37" as="geometry" />
        </mxCell>
        <mxCell id="xiWHHmvTj4LvFxewwK1D-1" value="" style="rounded=0;whiteSpace=wrap;html=1;align=left;verticalAlign=top;labelBackgroundColor=#FFFFFF;fillColor=#ffe6cc;strokeColor=#d79b00;" parent="1" vertex="1">
          <mxGeometry x="328" y="227" width="240" height="300" as="geometry" />
        </mxCell>
        <mxCell id="6GScubnOjsCA1cSDaGMV-1" value="" style="rounded=0;whiteSpace=wrap;html=1;align=left;verticalAlign=top;labelBorderColor=default;fillColor=#ffe6cc;strokeColor=#d79b00;" parent="1" vertex="1">
          <mxGeometry x="338" y="217" width="240" height="300" as="geometry" />
        </mxCell>
        <mxCell id="YTg8mPBcqh7w8Qsox6Sf-18" value="" style="group" parent="1" vertex="1" connectable="0">
          <mxGeometry x="339" y="217" width="240" height="300.5" as="geometry" />
        </mxCell>
        <mxCell id="xiWHHmvTj4LvFxewwK1D-22" value="" style="rounded=0;whiteSpace=wrap;html=1;strokeWidth=2;strokeColor=#FF6666;dashed=1;fillColor=none;" parent="YTg8mPBcqh7w8Qsox6Sf-18" vertex="1">
          <mxGeometry y="117" width="240" height="80" as="geometry" />
        </mxCell>
        <mxCell id="YTg8mPBcqh7w8Qsox6Sf-3" value="&lt;h1 style=&quot;text-align: center; margin-top: 0px;&quot;&gt;&lt;font style=&quot;font-size: 16px;&quot; face=&quot;Helvetica&quot;&gt;Cluster&lt;/font&gt;&lt;/h1&gt;&lt;div&gt;&lt;font style=&quot;font-size: 13px;&quot;&gt;&lt;font style=&quot;color: rgb(51, 153, 255);&quot;&gt;apiVersion&lt;/font&gt;: &lt;font&gt;cluster.karmada.io/v1alpha1&lt;/font&gt;&lt;/font&gt;&lt;/div&gt;&lt;div&gt;&lt;font style=&quot;font-size: 13px;&quot;&gt;&lt;font style=&quot;color: rgb(51, 153, 255);&quot;&gt;kind&lt;/font&gt;: Cluster&lt;/font&gt;&lt;/div&gt;&lt;div&gt;&lt;font style=&quot;font-size: 13px;&quot;&gt;&lt;font style=&quot;color: rgb(51, 153, 255);&quot;&gt;metadata&lt;/font&gt;:&lt;/font&gt;&lt;/div&gt;&lt;div&gt;&lt;font style=&quot;font-size: 13px;&quot;&gt;&amp;nbsp; &lt;font style=&quot;color: rgb(51, 153, 255);&quot;&gt;name&lt;/font&gt;: foo&lt;/font&gt;&lt;/div&gt;&lt;div&gt;&lt;font style=&quot;font-size: 13px;&quot;&gt;&lt;br&gt;&lt;/font&gt;&lt;/div&gt;&lt;div&gt;&lt;font style=&quot;font-size: 13px;&quot;&gt;&lt;font style=&quot;color: rgb(51, 153, 255);&quot;&gt;spec&lt;/font&gt;:&lt;/font&gt;&lt;/div&gt;&lt;div&gt;&lt;font style=&quot;font-size: 13px;&quot;&gt;&amp;nbsp; &lt;font style=&quot;color: rgb(51, 153, 255);&quot;&gt;taints&lt;/font&gt;:&lt;/font&gt;&lt;/div&gt;&lt;div&gt;&lt;font style=&quot;font-size: 13px;&quot;&gt;&amp;nbsp; &amp;nbsp; - &lt;font style=&quot;color: rgb(51, 153, 255);&quot;&gt;key&lt;/font&gt;: cluster.karmada.io/unhealthy&lt;/font&gt;&lt;/div&gt;&lt;div&gt;&lt;font style=&quot;font-size: 13px;&quot;&gt;&amp;nbsp; &amp;nbsp; &amp;nbsp;&amp;nbsp;&lt;font style=&quot;color: rgb(51, 153, 255);&quot;&gt;effect&lt;/font&gt;: NoSchedule&lt;/font&gt;&lt;/div&gt;&lt;div&gt;&lt;font style=&quot;font-size: 13px;&quot;&gt;&lt;br&gt;&lt;/font&gt;&lt;/div&gt;&lt;div&gt;&lt;font style=&quot;font-size: 13px;&quot;&gt;&lt;font style=&quot;color: rgb(51, 153, 255);&quot;&gt;status&lt;/font&gt;:&lt;/font&gt;&lt;/div&gt;&lt;div&gt;&lt;font style=&quot;font-size: 13px;&quot;&gt;&amp;nbsp; &lt;font style=&quot;color: rgb(51, 153, 255);&quot;&gt;conditions&lt;/font&gt;:&lt;/font&gt;&lt;/div&gt;&lt;div&gt;&lt;font style=&quot;font-size: 13px;&quot;&gt;&amp;nbsp; &amp;nbsp; -&amp;nbsp;&lt;span style=&quot;background-color: transparent;&quot;&gt;&lt;font style=&quot;color: light-dark(rgb(51, 153, 255), rgb(255, 255, 255));&quot;&gt;type&lt;/font&gt;&lt;/span&gt;&lt;span style=&quot;background-color: transparent; color: light-dark(rgb(0, 0, 0), rgb(255, 255, 255));&quot;&gt;:&amp;nbsp;&lt;/span&gt;&lt;/font&gt;&lt;span style=&quot;font-size: 13px; background-color: transparent; color: light-dark(rgb(0, 0, 0), rgb(255, 255, 255));&quot;&gt;KubeComponentsHealthy&lt;/span&gt;&lt;/div&gt;&lt;div&gt;&lt;font style=&quot;font-size: 13px;&quot;&gt;&amp;nbsp; &amp;nbsp; &amp;nbsp;&amp;nbsp;&lt;font style=&quot;color: rgb(51, 153, 255);&quot;&gt;status&lt;/font&gt;: &quot;False&quot;&lt;/font&gt;&lt;/div&gt;&lt;div&gt;&lt;font style=&quot;font-size: 13px;&quot;&gt;&amp;nbsp; &amp;nbsp; &amp;nbsp; &lt;font color=&quot;#3399ff&quot;&gt;reason&lt;/font&gt;:&amp;nbsp;&lt;/font&gt;&lt;span style=&quot;font-size: 13px; background-color: transparent; color: light-dark(rgb(0, 0, 0), rgb(255, 255, 255));&quot;&gt;SchedulerFails&lt;/span&gt;&lt;/div&gt;&lt;div&gt;&lt;br&gt;&lt;/div&gt;&lt;div&gt;&lt;br&gt;&lt;/div&gt;" style="text;html=1;whiteSpace=wrap;overflow=hidden;rounded=0;strokeColor=none;" parent="YTg8mPBcqh7w8Qsox6Sf-18" vertex="1">
          <mxGeometry width="240" height="300.5" as="geometry" />
        </mxCell>
        <mxCell id="YTg8mPBcqh7w8Qsox6Sf-14" value="" style="rounded=0;whiteSpace=wrap;html=1;strokeWidth=2;strokeColor=#3399FF;dashed=1;fillColor=none;" parent="YTg8mPBcqh7w8Qsox6Sf-18" vertex="1">
          <mxGeometry y="207" width="240" height="80" as="geometry" />
        </mxCell>
        <mxCell id="YTg8mPBcqh7w8Qsox6Sf-19" value="" style="shape=curlyBracket;whiteSpace=wrap;html=1;rounded=1;flipH=1;labelPosition=right;verticalLabelPosition=middle;align=left;verticalAlign=middle;" parent="1" vertex="1">
          <mxGeometry x="209" y="277.25" width="30" height="180" as="geometry" />
        </mxCell>
        <mxCell id="YTg8mPBcqh7w8Qsox6Sf-24" value="" style="edgeStyle=elbowEdgeStyle;elbow=horizontal;endArrow=classic;html=1;curved=0;rounded=0;endSize=8;startSize=8;exitX=0.333;exitY=0.5;exitDx=0;exitDy=0;exitPerimeter=0;" parent="1" source="YTg8mPBcqh7w8Qsox6Sf-19" edge="1">
          <mxGeometry width="50" height="50" relative="1" as="geometry">
            <mxPoint x="239" y="366" as="sourcePoint" />
            <mxPoint x="339" y="464" as="targetPoint" />
          </mxGeometry>
        </mxCell>
        <mxCell id="YTg8mPBcqh7w8Qsox6Sf-31" value="1: Report" style="text;html=1;align=left;verticalAlign=middle;whiteSpace=wrap;rounded=0;" parent="1" vertex="1">
          <mxGeometry x="224" y="395.5" width="60" height="30" as="geometry" />
        </mxCell>
        <mxCell id="YTg8mPBcqh7w8Qsox6Sf-34" value="" style="edgeStyle=elbowEdgeStyle;elbow=horizontal;endArrow=classic;html=1;curved=0;rounded=0;endSize=8;startSize=8;exitX=0.504;exitY=1;exitDx=0;exitDy=0;exitPerimeter=0;entryX=0.506;entryY=0.037;entryDx=0;entryDy=0;entryPerimeter=0;" parent="1" source="FvrpP-7t_MK4GON8_R86-3" target="xiWHHmvTj4LvFxewwK1D-5" edge="1">
          <mxGeometry width="50" height="50" relative="1" as="geometry">
            <mxPoint x="849" y="320" as="sourcePoint" />
            <mxPoint x="849" y="400" as="targetPoint" />
          </mxGeometry>
        </mxCell>
        <mxCell id="YTg8mPBcqh7w8Qsox6Sf-35" value="2: Watch" style="text;html=1;align=left;verticalAlign=middle;whiteSpace=wrap;rounded=0;" parent="1" vertex="1">
          <mxGeometry x="629" y="451.5" width="60" height="30" as="geometry" />
        </mxCell>
        <mxCell id="YTg8mPBcqh7w8Qsox6Sf-36" value="3: Match" style="text;html=1;align=left;verticalAlign=middle;whiteSpace=wrap;rounded=0;" parent="1" vertex="1">
          <mxGeometry x="809" y="320" width="60" height="30" as="geometry" />
        </mxCell>
        <mxCell id="YTg8mPBcqh7w8Qsox6Sf-38" value="" style="endArrow=classic;html=1;rounded=0;entryX=0.992;entryY=0.516;entryDx=0;entryDy=0;entryPerimeter=0;fontColor=#D0D0D0;" parent="1" target="YTg8mPBcqh7w8Qsox6Sf-3" edge="1">
          <mxGeometry width="50" height="50" relative="1" as="geometry">
            <mxPoint x="728" y="412" as="sourcePoint" />
            <mxPoint x="689" y="340" as="targetPoint" />
          </mxGeometry>
        </mxCell>
        <mxCell id="YTg8mPBcqh7w8Qsox6Sf-39" value="4: Taint" style="text;html=1;align=left;verticalAlign=middle;whiteSpace=wrap;rounded=0;" parent="1" vertex="1">
          <mxGeometry x="639" y="362" width="60" height="30" as="geometry" />
        </mxCell>
        <mxCell id="YTg8mPBcqh7w8Qsox6Sf-40" value="" style="endArrow=classic;html=1;rounded=0;exitX=1.013;exitY=0.513;exitDx=0;exitDy=0;exitPerimeter=0;entryX=-0.02;entryY=0.574;entryDx=0;entryDy=0;entryPerimeter=0;" parent="1" source="YTg8mPBcqh7w8Qsox6Sf-14" target="xiWHHmvTj4LvFxewwK1D-5" edge="1">
          <mxGeometry width="50" height="50" relative="1" as="geometry">
            <mxPoint x="649" y="410" as="sourcePoint" />
            <mxPoint x="699" y="430" as="targetPoint" />
          </mxGeometry>
        </mxCell>
      </root>
    </mxGraphModel>
  </diagram>
</mxfile>
